<svg xmlns="http://www.w3.org/2000/svg" width="20" height="20" viewBox="0 0 20 20"><g fill="none" fill-rule="evenodd"><circle cx="10" cy="10" r="9" fill="#FF3E00"/><path fill="#000" d="M3.50032875,4.27795487 L4.27800479,3.50027883 L10.5003323,9.72260638 L9.7226563,10.5002824 Z M7.00026598,0.000131444802 C5.14023091,-0.0112936151 3.35302928,0.722491659 2.03776047,2.03776047 C0.722491659,3.35302928 -0.0112936151,5.14023091 0.000131444802,7.00026598 C-0.0112936151,8.86030105 0.722491659,10.6475027 2.03776047,11.9627715 C3.35302928,13.2780403 5.14023091,14.0118256 7.00026598,14.0004005 C8.86030105,14.0118256 10.6475027,13.2780403 11.9627715,11.9627715 C13.2780403,10.6475027 14.0118256,8.86030105 14.0004005,7.00026598 C14.0118256,5.14023091 13.2780403,3.35302928 11.9627715,2.03776047 C10.6475027,0.722491659 8.86030105,-0.0112936151 7.00026598,0.000131444802 Z M7.00026598,13.000266 C3.68655748,13.000266 1.00026598,10.3139745 1.00026598,7.00026598 C1.00026598,3.68655748 3.68655748,1.00026598 7.00026598,1.00026598 C10.3139745,1.00026598 13.000266,3.68655748 13.000266,7.00026598 C12.9905727,10.3099511 10.3099511,12.9905727 7.00026598,13.000266 L7.00026598,13.000266 Z" transform="translate(3 3)"/></g></svg>