<?xml version="1.0" standalone="no"?>
<!DOCTYPE svg PUBLIC "-//W3C//DTD SVG 20010904//EN"
  "http://www.w3.org/TR/2001/REC-SVG-20010904/DTD/svg10.dtd">
<svg width="16" height="16">
<g style="fill:black;fill-opacity:1;stroke:none;stroke-width:1;stroke-opacity:0;fill-rule:nonzero;">
<g style="fill-rule:evenodd;" transform="translate(2,2.1)">
  <path d="M5.5,3.9 L6.5,3.9 L6.5,12.9 L5.5,12.9 Z M3.665,7.01 C2.92180323,6.34598343 2.49693053,5.39662403 2.49693053,4.4 C2.49693053,3.40337597 2.92180323,2.45401657 3.665,1.79 L4.335,2.535 C3.80366295,3.00931871 3.49986486,3.68775194 3.49986486,4.4 C3.49986486,5.11224806 3.80366295,5.79068129 4.335,6.265 L3.665,7.01 Z M8.335,7.01 L7.665,6.265 C8.19633705,5.79068129 8.50013514,5.11224806 8.50013514,4.4 C8.50013514,3.68775194 8.19633705,3.00931871 7.665,2.535 L8.335,1.79 C9.07819677,2.45401657 9.50306947,3.40337597 9.50306947,4.4 C9.50306947,5.39662403 9.07819677,6.34598343 8.335,7.01 Z M2.2,8.8 C0.815067865,7.7613009 0,6.13116517 0,4.4 C0,2.66883483 0.815067865,1.0386991 2.2,-8.8817842e-16 L2.8,0.8 C1.66687371,1.64984472 1,2.98359214 1,4.4 C1,5.81640786 1.66687371,7.15015528 2.8,8 L2.2,8.8 Z M9.8,8.8 L9.2,8 C10.3331263,7.15015528 11,5.81640786 11,4.4 C11,2.98359214 10.3331263,1.64984472 9.2,0.8 L9.8,-8.8817842e-16 C11.1849321,1.0386991 12,2.66883483 12,4.4 C12,6.13116517 11.1849321,7.7613009 9.8,8.8 Z"/>
</g>
</g>
</svg>
