<svg xmlns="http://www.w3.org/2000/svg" width="20" height="20" viewBox="0 0 20 20"><g fill="none" fill-rule="evenodd"><rect width="18" height="18" x="1" y="1" fill="#FFF" rx="1"/><path fill="#000" d="M9.85,3.65 L6.35,0.15 C6.25,0.05 6.15,0 6,0 L1,0 C0.45,0 0,0.45 0,1 L0,13 C0,13.55 0.45,14 1,14 L9,14 C9.55,14 10,13.55 10,13 L10,4 C10,3.85 9.95,3.75 9.85,3.65 Z M6,1.2 L8.8,4 L6,4 L6,1.2 Z M9,13 L1,13 L1,1 L5,1 L5,4 C5,4.55 5.45,5 6,5 L9,5 L9,13 Z M2,10 L8,10 L8,11 L2,11 Z M2,7 L8,7 L8,8 L2,8 Z" transform="translate(5 3)"/></g></svg>