<svg xmlns="http://www.w3.org/2000/svg" width="20" height="20" viewBox="0 0 20 20"><g fill="none" fill-rule="evenodd"><rect width="18" height="18" x="1" y="1" fill="#FFF" rx="1"/><path fill="#000" d="M7.5,5 C8.32842712,5 9,4.32842712 9,3.5 C9,2.67157288 8.32842712,2 7.5,2 C6.67157288,2 6,2.67157288 6,3.5 C6,4.32842712 6.67157288,5 7.5,5 L7.5,5 Z M7.5,3 C7.77614237,3 8,3.22385763 8,3.5 C8,3.77614237 7.77614237,4 7.5,4 C7.22385763,4 7,3.77614237 7,3.5 C7,3.22385763 7.22385763,3 7.5,3 Z M11,0 L1,0 C0.44771525,0 0,0.44771525 0,1 L0,11 C0,11.5522847 0.44771525,12 1,12 L11,12 C11.5522847,12 12,11.5522847 12,11 L12,1 C12,0.44771525 11.5522847,0 11,0 Z M11,11 L1,11 L1,8 L3.5,5.5 L6.295,8.295 C6.68503745,8.68272359 7.31496255,8.68272359 7.705,8.295 L8.5,7.5 L11,10 L11,11 Z M11,8.585 L9.205,6.79 C8.81496255,6.40227641 8.18503745,6.40227641 7.795,6.79 L7,7.585 L4.205,4.79 C3.81496255,4.40227641 3.18503745,4.40227641 2.795,4.79 L1,6.585 L1,1 L11,1 L11,8.585 Z" transform="translate(4 4)"/></g></svg>