<svg width="32" height="32" viewBox="0 0 32 32" fill="none"
     xmlns="http://www.w3.org/2000/svg">
  <circle cx="16" cy="16" r="16" fill="#212121"/>
  <g transform="translate(5 5) scale(0.7 0.7)">>
    <path fill-rule="evenodd" clip-rule="evenodd"
          d="M23.08 28.0039L4 8.92186L8.922 3.99986L12.71 7.78786L10.458 10.0399L11.873 11.4539L14.124 9.20186L18.254 13.3319L16 15.5839L17.416 16.9979L19.668 14.7459L23.798 18.8759L21.546 21.1269L22.96 22.5419L25.212 20.2899L28.002 23.0809L23.08 28.0039ZM29.415 21.6669L10.335 2.58386C9.556 1.80586 8.286 1.80586 7.507 2.58486L2.585 7.50686C2.207 7.88486 2 8.38686 2 8.92086C2 9.45586 2.207 9.95786 2.585 10.3349L21.665 29.4169C22.055 29.8069 22.567 29.9999 23.079 29.9999C23.592 29.9999 24.104 29.8069 24.494 29.4169L29.415 24.4949C30.195 23.7159 30.195 22.4459 29.415 21.6669V21.6669Z"
          fill="#FFFFFF"/>
  </g>
</svg>
