<?xml version="1.0" standalone="no"?>
<!DOCTYPE svg PUBLIC "-//W3C//DTD SVG 20010904//EN"
  "http://www.w3.org/TR/2001/REC-SVG-20010904/DTD/svg10.dtd">
<svg width="36" height="36">
<g style="fill:black;fill-opacity:1;stroke:none;stroke-width:1;stroke-opacity:0;fill-rule:nonzero;">
<g style="fill:none;fill-rule:evenodd;" transform="translate(5,5)">
<g style="fill:#FFF;stroke:gray;stroke-width:4;" transform="translate(5,5)">
  <path d="M13,0.154700538 C13.5179492,0.154700538 14.0358984,0.288675135 14.5,0.556624327 L23.0262794,5.47927406 C23.9544827,6.01517244 24.5262794,7.0055535 24.5262794,8.07735027 L24.5262794,17.9226497 C24.5262794,18.9944465 23.9544827,19.9848276 23.0262794,20.5207259 L14.5,25.4433757 C13.5717968,25.9792741 12.4282032,25.9792741 11.5,25.4433757 L2.97372056,20.5207259 C2.50961894,20.2527767 2.13461894,19.8712069 1.87564435,19.4226497 C1.61666975,18.9740926 1.47372056,18.4585481 1.47372056,17.9226497 L1.47372056,8.07735027 C1.47372056,7.54145188 1.61666975,7.02590743 1.87564435,6.57735027 C2.13461894,6.12879311 2.50961894,5.74722325 2.97372056,5.47927406 L11.5,0.556624327 C11.9641016,0.288675135 12.4820508,0.154700538 13,0.154700538 Z"/>
</g>
<g style="stroke:#FFF;stroke-width:3;" transform="translate(5,5)">
  <path d="M13,0.654700538 C13.4316243,0.654700538 13.8632487,0.766346035 14.25,0.989637029 L22.7762794,5.91228676 C23.5497821,6.35886875 24.0262794,7.18418629 24.0262794,8.07735027 L24.0262794,17.9226497 C24.0262794,18.8158137 23.5497821,19.6411313 22.7762794,20.0877132 L14.25,25.010363 C13.4764973,25.456945 12.5235027,25.456945 11.75,25.010363 L3.22372056,20.0877132 C2.83696921,19.8644222 2.52446921,19.5464474 2.30865705,19.1726497 C2.09284489,18.7988521 1.97372056,18.3692317 1.97372056,17.9226497 L1.97372056,8.07735027 C1.97372056,7.63076828 2.09284489,7.2011479 2.30865705,6.82735027 C2.52446921,6.45355264 2.83696921,6.13557775 3.22372056,5.91228676 L11.75,0.989637029 C12.1367513,0.766346035 12.5683757,0.654700538 13,0.654700538 Z"/>
</g>
<g style="fill:#0043CE;" transform="translate(6,6)">
  <path d="M9.935,2.92 L9.065,2.42 L7,6 L7,6 C6.44771525,6 6,6.44771525 6,7 C6,7.55228475 6.44771525,8 7,8 C7.55228475,8 8,7.55228475 8,7 C7.99968833,6.82437011 7.95312675,6.65191982 7.865,6.5 L9.935,2.92 Z M7,0 C3.13400675,0 0,3.13400675 0,7 C0,10.8659932 3.13400675,14 7,14 C10.8659932,14 14,10.8659932 14,7 C14,5.14348457 13.2625021,3.36300718 11.9497475,2.05025253 C10.6369928,0.737497883 8.85651543,0 7,0 Z M7,0.999999301 C9.47183414,1.00284433 11.6889612,2.52128853 12.585,4.825 C11.9903373,4.52762712 11.3734836,4.27687359 10.74,4.075 L10.24,4.96 C11.1899225,5.23866309 12.099306,5.6404055 12.945,6.155 C13.0316667,6.715 13.0316667,7.285 12.945,7.845 C11.1519379,8.92987715 9.09571582,9.50229894 7,9.4999993 C4.90767953,9.50047145 2.85515725,8.92811688 1.065,7.845 C0.978333333,7.285 0.978333333,6.715 1.065,6.155 C2.70796597,5.15350112 4.57769532,4.58415391 6.5,4.4999993 L6.5,3.4999993 C4.73210038,3.56858895 2.99889974,4.01168843 1.415,4.8 C2.31905558,2.50611663 4.53439338,0.998814277 7,0.999999301 Z M7,13 C4.52816586,12.9971557 2.31103883,11.4787115 1.415,9.175 C3.14792283,10.0460022 5.06049842,10.4997467 7,10.5 C8.93950158,10.4997467 10.8520772,10.0460022 12.585,9.175 C11.6889612,11.4787115 9.47183414,12.9971557 7,13 L7,13 Z"/>
</g>
</g>
</g>
</svg>
