<?xml version="1.0" standalone="no"?>
<!DOCTYPE svg PUBLIC "-//W3C//DTD SVG 20010904//EN"
  "http://www.w3.org/TR/2001/REC-SVG-20010904/DTD/svg10.dtd">
<svg width="24" height="24">
<g style="fill:black;fill-opacity:1;stroke:none;stroke-width:1;stroke-opacity:0;fill-rule:nonzero;">
<g style="fill:none;fill-rule:evenodd;" transform="translate(-1,-1)">
<g style="" transform="matrix(0.866025 0.5 -0.5 0.866025 8.24167 -4.75833)">
<g style="fill:#924EFF;stroke:gray;stroke-width:2;" transform="matrix(0.866025 0.5 -0.5 0.866025 8.24167 -4.75833)">
  <path d="M12.9659802,4.0940138 C13.3127167,4.09478575 13.6592527,4.18561742 13.9692299,4.36642785 L19.9384598,7.84829456 C20.5501719,8.20510775 20.9275844,8.85880545 20.9307377,9.56697026 L20.9615077,16.4774084 C20.9631056,16.8362617 20.8685001,17.1817865 20.6958004,17.4824551 C20.5231007,17.7831237 20.2723067,18.0389361 19.9615276,18.2183645 L14.0384724,21.638042 C13.7276933,21.8174704 13.3807563,21.9067581 13.0340198,21.9059862 C12.6872833,21.9052142 12.3407473,21.8143826 12.0307701,21.6335721 L6.06154019,18.1517054 C5.44982809,17.7948922 5.07241555,17.1411946 5.06926231,16.4330297 L5.03849227,9.5225916 C5.03689441,9.16373831 5.13149988,8.8182135 5.3041996,8.5175449 C5.47689932,8.21687631 5.7276933,7.96106393 6.03847244,7.7816355 L11.9615276,4.36195804 C12.2723067,4.18252961 12.6192437,4.09324185 12.9659802,4.0940138 Z"/>
</g>
<g style="stroke:#924EFF;" transform="matrix(0.866025 0.5 -0.5 0.866025 8.24167 -4.75833)">
  <path d="M12.9648671,4.59401256 C13.2249194,4.59459153 13.4848214,4.66271528 13.7173043,4.7983231 L19.6865342,8.28018981 C20.1453183,8.5477997 20.4283777,9.03807297 20.4307426,9.56919658 L20.4615127,16.4796347 C20.4627111,16.7487747 20.391757,17.0079183 20.2622322,17.2334197 C20.1327074,17.4589212 19.9446119,17.6507805 19.7115276,17.7853518 L13.7884724,21.2050293 C13.5553881,21.3396006 13.2951853,21.4065664 13.0351329,21.4059874 C12.7750806,21.4054085 12.5151786,21.3372847 12.2826957,21.2016769 L6.31346576,17.7198102 C5.85468169,17.4522003 5.57162229,16.961927 5.56925736,16.4308034 L5.53848731,9.52036528 C5.53728892,9.25122531 5.60824302,8.9920817 5.73776781,8.76658025 C5.8672926,8.54107881 6.05538808,8.34921952 6.28847244,8.2146482 L12.2115276,4.79497074 C12.4446119,4.66039942 12.7048147,4.5934336 12.9648671,4.59401256 Z"/>
</g>
</g>
<g style="fill:#FFF;stroke:#000;stroke-opacity:.8;stroke-width:2;" transform="matrix(0.866025 0.5 -0.5 0.866025 8.24167 -4.75833)">
  <path d="M13,8.15470054 L17.1961524,10.5773503 L17.1961524,15.4226497 L13,17.8452995 L8.80384758,15.4226497 L8.80384758,10.5773503 L13,8.15470054 Z"/>
</g>
</g>
</g>
</svg>
