<?xml version="1.0" encoding="UTF-8"?>
<svg width="36px" height="36px" viewBox="0 0 36 36" version="1.1" xmlns="http://www.w3.org/2000/svg" xmlns:xlink="http://www.w3.org/1999/xlink">
    <g id="polyline" stroke="none" stroke-width="1" fill="none" fill-rule="evenodd">
        <path d="M18,12 L20,12 L20,10 L18,10 L18,12 Z M11,20 L13,20 L13,18 L11,18 L11,20 Z M23,26 L25,26 L25,24 L23,24 L23,26 Z M21,26 L21,25.5 L14,22 L11,22 C10.45,22 9.97933333,21.8043333 9.588,21.413 C9.19666667,21.0216667 9.00066667,20.5506667 9,20 L9,18 C9,17.45 9.196,16.9793333 9.588,16.588 C9.98,16.1966667 10.4506667,16.0006667 11,16 L13.3,16 L16,12.9 L16,10 C16,9.45 16.196,8.97933333 16.588,8.588 C16.98,8.19666667 17.4506667,8.00066667 18,8 L20,8 C20.55,8 21.021,8.196 21.413,8.588 C21.805,8.98 22.0006667,9.45066667 22,10 L22,12 C22,12.55 21.8043333,13.021 21.413,13.413 C21.0216667,13.805 20.5506667,14.0006667 20,14 L17.7,14 L15,17.1 L15,20.25 L21.125,23.3 C21.2583333,22.9166667 21.496,22.6043333 21.838,22.363 C22.18,22.1216667 22.5673333,22.0006667 23,22 L25,22 C25.55,22 26.021,22.196 26.413,22.588 C26.805,22.98 27.0006667,23.4506667 27,24 L27,26 C27,26.55 26.8043333,27.021 26.413,27.413 C26.0216667,27.805 25.5506667,28.0006667 25,28 L23,28 C22.45,28 21.9793333,27.8043333 21.588,27.413 C21.1966667,27.0216667 21.0006667,26.5506667 21,26" id="Shape" fill="currentColor" fill-rule="nonzero"></path>
    </g>
</svg>