<?xml version="1.0" encoding="UTF-8"?>
<svg width="36px" height="36px" viewBox="0 0 36 36" version="1.1" xmlns="http://www.w3.org/2000/svg" xmlns:xlink="http://www.w3.org/1999/xlink">
    <g id="point" stroke="none" stroke-width="1" fill="none" fill-rule="evenodd">
        <path d="M18,20 C17.45,20 16.9793333,19.8043333 16.588,19.413 C16.1966667,19.0216667 16.0006667,18.5506667 16,18 C16,17.45 16.196,16.9793333 16.588,16.588 C16.98,16.1966667 17.4506667,16.0006667 18,16 C18.55,16 19.021,16.196 19.413,16.588 C19.805,16.98 20.0006667,17.4506667 20,18 C20,18.55 19.8043333,19.021 19.413,19.413 C19.0216667,19.805 18.5506667,20.0006667 18,20 M17,14 L17,9 L19,9 L19,14 L17,14 Z M17,27 L17,22 L19,22 L19,27 L17,27 Z M22,19 L22,17 L27,17 L27,19 L22,19 Z M9,19 L9,17 L14,17 L14,19 L9,19 Z" id="Shape" fill="currentColor" fill-rule="nonzero"></path>
    </g>
</svg>