<?xml version="1.0" encoding="UTF-8"?>
<svg width="36px" height="36px" viewBox="0 0 36 36" version="1.1" xmlns="http://www.w3.org/2000/svg" xmlns:xlink="http://www.w3.org/1999/xlink">
    <g id="semicircle" stroke="none" stroke-width="1" fill="none" fill-rule="evenodd">
        <path d="M20,14 C20.2833333,14 20.521,14.096 20.713,14.288 C20.905,14.48 21.0006667,14.7173333 21,15 L21,25.825 L18.55,25.125 L21.125,27.7 C21.225,27.8 21.3333333,27.875 21.45,27.925 C21.5666667,27.975 21.6916667,28 21.825,28 L26,28 C26.55,28 27.021,27.8043333 27.413,27.413 C27.805,27.0216667 28.0006667,26.5506667 28,26 L28,22 C28,21.7166667 28.096,21.4793333 28.288,21.288 C28.48,21.0966667 28.7173333,21.0006667 29,21 C29.2833333,21 29.521,21.096 29.713,21.288 C29.905,21.48 30.0006667,21.7173333 30.0000035,22 L30.0000035,26 C30.0000035,27.1 29.6083333,28.0416667 28.825,28.825 C28.0416667,29.6083333 27.1,30 26,30 L21.825,30 C21.425,30 21.0416667,29.925 20.675,29.775 C20.3083333,29.625 19.9833333,29.4083333 19.7,29.125 L14.6,24 L15.425,23.15 C15.6583333,22.9166667 15.9416667,22.7583333 16.275,22.675 C16.6083333,22.5916667 16.9416667,22.5916667 17.275,22.675 L19,23.175 L19,15 C19,14.7166667 19.096,14.4793333 19.288,14.288 C19.48,14.0966667 19.7173333,14.0006667 20,14 Z M23,18 C23.2833333,18 23.521,18.096 23.713,18.288 C23.905,18.48 24.0006667,18.7173333 24,19 L24,23 L22,23 L22,19 C22,18.7166667 22.096,18.4793333 22.288,18.288 C22.48,18.0966667 22.7173333,18.0006667 23,18 Z M26,19 C26.2833333,19 26.521,19.096 26.713,19.288 C26.905,19.48 27.0006667,19.7173333 27,20 L27,23 L25,23 L25,20 C25,19.7166667 25.096,19.4793333 25.288,19.288 C25.48,19.0966667 25.7173333,19.0006667 26,19 Z" id="Combined-Shape" fill="currentColor" fill-rule="nonzero"></path>
        <path d="M13.4701761,22.533758 L14.0080736,24.9752056 C13.1098795,25.1730949 12.1878373,25.273789 11.2535932,25.273789 L11.2535932,22.773789 C12.0066541,22.773789 12.7483498,22.6927901 13.4701761,22.533758 Z M17.8194997,20.3950776 L19.4220401,22.3138961 C18.7111906,22.9075765 17.9376945,23.4227319 17.1151461,23.849228 L15.9643755,21.6298301 C16.6255266,21.2870194 17.2475904,20.8727193 17.8194997,20.3950776 Z M20.7054542,16.4969487 L23.0096463,17.4668452 C22.6498613,18.3215897 22.1976365,19.1336552 21.6620286,19.8893003 L19.622425,18.4436111 C20.0530676,17.836053 20.4164776,17.1834731 20.7054542,16.4969487 Z M23.9677445,11.5612021 C23.9918855,11.8841681 24.0035958,12.2054266 24.003558,12.5540964 C24.0021438,13.1606017 23.958284,13.7621323 23.8728267,14.3555687 L21.3983519,13.9992343 C21.4671043,13.5218001 21.5024242,13.0373928 21.5035613,12.5510572 C21.5035896,12.2667737 21.4941472,12.0077304 21.4746994,11.7475518 L23.9677445,11.5612021 Z M9.98621022,9.6416208 L12.4862094,9.64370523 C12.4859829,9.91526705 12.4857869,10.1890817 12.4856215,10.4649238 L12.4849954,12.1425019 L9.98499541,12.142121 L9.98562193,10.4634115 L9.98621022,9.6416208 Z M22.1205519,5.85197739 C22.6057125,6.64068302 23.0039392,7.48053499 23.3071046,8.35782653 L20.944213,9.17437016 C20.7008309,8.47007761 20.3810143,7.79559111 19.9911691,7.16183574 L22.1205519,5.85197739 Z M9.99583079,4.19859503 L12.4958202,4.20585732 C12.4935363,4.99208806 12.4915993,5.82736673 12.490025,6.70411117 L9.99002503,6.6996108 C9.99160491,5.82197183 9.99354409,4.98577592 9.99583079,4.19859503 Z M17.8464589,1.60866166 C18.6388459,2.08819963 19.3769484,2.65287021 20.0474412,3.2917103 L18.3229133,5.10168364 C17.7832774,4.5875229 17.1893663,4.13316307 16.55208,3.74748925 L17.8464589,1.60866166 Z M12.1487166,-0.19522636 C13.0795188,-0.130579271 13.9931502,0.0347769941 14.877297,0.296439692 L14.1678407,2.69366138 C13.4579725,2.48357633 12.7241355,2.35076067 11.9755011,2.2987657 L12.1487166,-0.19522636 Z" id="Oval-Copy" fill="currentColor" fill-rule="nonzero" transform="translate(16.9943, 12.5393) rotate(-90) translate(-16.9943, -12.5393)"></path>
    </g>
</svg>