<?xml version="1.0" encoding="UTF-8"?>
<svg width="36px" height="36px" viewBox="0 0 36 36" version="1.1" xmlns="http://www.w3.org/2000/svg" xmlns:xlink="http://www.w3.org/1999/xlink">
    <g id="polygon" stroke="none" stroke-width="1" fill="none" fill-rule="evenodd">
        <path d="M23,5 C24.1045695,5 25,5.8954305 25,7 L25,9 C25,10.1045695 24.1045695,11 23,11 L21,11 C19.8954305,11 19,10.1045695 19,9 L19,7 C19,5.8954305 19.8954305,5 21,5 L23,5 Z M23,7 L21,7 L21,9 L23,9 L23,7 Z" id="Rectangle" fill="currentColor" fill-rule="nonzero"></path>
        <path d="M10,12 C11.1045695,12 12,12.8954305 12,14 L12,16 C12,17.1045695 11.1045695,18 10,18 L8,18 C6.8954305,18 6,17.1045695 6,16 L6,14 C6,12.8954305 6.8954305,12 8,12 L10,12 Z M10,14 L8,14 L8,16 L10,16 L10,14 Z" id="Rectangle-Copy" fill="currentColor" fill-rule="nonzero"></path>
        <path d="M16,25 C17.1045695,25 18,25.8954305 18,27 L18,29 C18,30.1045695 17.1045695,31 16,31 L14,31 C12.8954305,31 12,30.1045695 12,29 L12,27 C12,25.8954305 12.8954305,25 14,25 L16,25 Z M16,27 L14,27 L14,29 L16,29 L16,27 Z" id="Rectangle-Copy-2" fill="currentColor" fill-rule="nonzero"></path>
        <path d="M21,15 C22.1045695,15 23,15.8954305 23,17 L23,19 C23,20.1045695 22.1045695,21 21,21 L19,21 C17.8954305,21 17,20.1045695 17,19 L17,17 C17,15.8954305 17.8954305,15 19,15 L21,15 Z M21,17 L19,17 L19,19 L21,19 L21,17 Z" id="Rectangle-Copy-3" fill="currentColor" fill-rule="nonzero"></path>
        <path d="M26,23 C27.1045695,23 28,23.8954305 28,25 L28,27 C28,28.1045695 27.1045695,29 26,29 L24,29 C22.8954305,29 22,28.1045695 22,27 L22,25 C22,23.8954305 22.8954305,23 24,23 L26,23 Z M26,25 L24,25 L24,27 L26,27 L26,25 Z" id="Rectangle-Copy-4" fill="currentColor" fill-rule="nonzero"></path>
        <polygon id="Path-2" fill="currentColor" fill-rule="nonzero" points="22.7123049 25.1455639 23.3187689 27.0513974 17.3293725 28.9573107 16.7229085 27.0514772"></polygon>
        <polygon id="Path-3" fill="currentColor" fill-rule="nonzero" points="10.5778015 16.53411 14.8174824 25.2408221 13.0193359 26.1164186 8.77965507 17.4097065"></polygon>
        <polygon id="Path-4" fill="currentColor" fill-rule="nonzero" points="19.568867 8.15165707 20.493056 9.92531849 11.5263271 14.5975471 10.6021382 12.8238856"></polygon>
        <path d="M20.7168287,9.65171898 L22.5843209,10.367591 C22.6018659,10.3239865 22.6018659,10.3239865 22.5118458,10.6485049 C22.3930605,11.081096 22.3930605,11.081096 22.2068853,11.7596931 C21.9361865,12.7464987 21.5307855,14.2250336 20.9906883,16.1952764 L19.0618478,15.6665287 C19.6019737,13.6961811 20.0074021,12.2175462 20.2781388,11.2306026 C20.4643661,10.5518153 20.4643661,10.5518153 20.5832864,10.1187324 C20.6636235,9.82343195 20.6636235,9.82343195 20.7168287,9.65171898 Z" id="Path-5" fill="currentColor" fill-rule="nonzero"></path>
        <path d="M22.4624194,19.1467435 C23.3895665,20.5450258 24.0853346,21.5941402 24.5497043,22.294058 C24.7093621,22.5346746 24.789191,22.6549829 24.8545415,22.7534423 L24.9706517,22.9283399 C24.9992528,22.9714144 25.031811,23.0204453 25.0725087,23.0817338 C25.1721261,23.2280691 25.2119731,23.2866032 25.2028872,23.2812235 L25.1778917,23.2554238 C25.1643905,23.2403122 25.1458537,23.2189838 25.1226827,23.1923232 L23.7084691,24.6065368 C23.5322646,24.3834371 23.5322646,24.3834371 23.406563,24.1883615 C23.32499,24.0655172 23.2760463,23.9918107 23.2262328,23.9167713 L23.0985528,23.7243913 C23.0460821,23.6453201 22.9789898,23.544207 22.8831438,23.3997596 C22.4186499,22.6996547 21.7227918,21.6504045 20.7955505,20.2519801 L22.4624194,19.1467435 Z" id="Path-6" fill="currentColor" fill-rule="nonzero"></path>
    </g>
</svg>