<?xml version="1.0" encoding="UTF-8"?>
<svg width="36px" height="36px" viewBox="0 0 36 36" version="1.1" xmlns="http://www.w3.org/2000/svg" xmlns:xlink="http://www.w3.org/1999/xlink">
    <g id="rectangle" stroke="none" stroke-width="1" fill="none" fill-rule="evenodd">
        <path d="M7,18 L7,16 L9,16 L9,18 L7,18 Z M27,18 L27,16 L29,16 L29,18 L27,18 Z M7,14 L7,12 L9,12 L9,14 L7,14 Z M27,14 L27,12 L29,12 L29,14 L27,14 Z M7,10 L7,8 L9,8 L9,10 L7,10 Z M11,18 L11,16 L13,16 L13,18 L11,18 Z M23,18 L23,16 L25,16 L25,18 L23,18 Z M27,10 L27,8 L29,8 L29,10 L27,10 Z M11,10 L11,8 L13,8 L13,10 L11,10 Z M15,10 L15,8 L17,8 L17,10 L15,10 Z M19,10 L19,8 L21,8 L21,10 L19,10 Z M23,10 L23,8 L25,8 L25,10 L23,10 Z M17.825,29 C17.425,29 17.0416667,28.925 16.675,28.775 C16.3083333,28.625 15.9833333,28.4083333 15.7,28.125 L10.6,23 L11.425,22.15 C11.6583333,21.9166667 11.9416667,21.7583333 12.275,21.675 C12.6083333,21.5916667 12.9416667,21.5916667 13.275,21.675 L15,22.175 L15,14 C15,13.7166667 15.096,13.4793333 15.288,13.288 C15.48,13.0966667 15.7173333,13.0006667 16,13 C16.2833333,13 16.521,13.096 16.713,13.288 C16.905,13.48 17.0006667,13.7173333 17,14 L17,24.825 L14.55,24.125 L17.125,26.7 C17.225,26.8 17.3333333,26.875 17.45,26.925 C17.5666667,26.975 17.6916667,27 17.825,27 L22,27 C22.55,27 23.021,26.8043333 23.413,26.413 C23.805,26.0216667 24.0006667,25.5506667 24,25 L24,21 C24,20.7166667 24.096,20.4793333 24.288,20.288 C24.48,20.0966667 24.7173333,20.0006667 25,20 C25.2833333,20 25.521,20.096 25.713,20.288 C25.905,20.48 26.0006667,20.7173333 26.0000035,21 L26.0000035,25 C26.0000035,26.1 25.6083333,27.0416667 24.825,27.825 C24.0416667,28.6083333 23.1,29 22,29 L17.825,29 Z M18,22 L18,18 C18,17.7166667 18.096,17.4793333 18.288,17.288 C18.48,17.0966667 18.7173333,17.0006667 19,17 C19.2833333,17 19.521,17.096 19.713,17.288 C19.905,17.48 20.0006667,17.7173333 20,18 L20,22 L18,22 Z M21,22 L21,19 C21,18.7166667 21.096,18.4793333 21.288,18.288 C21.48,18.0966667 21.7173333,18.0006667 22,18 C22.2833333,18 22.521,18.096 22.713,18.288 C22.905,18.48 23.0006667,18.7173333 23,19 L23,22 L21,22 Z M22,27 L17.125,27 L22,27 Z" id="Shape" fill="currentColor" fill-rule="nonzero"></path>
    </g>
</svg>