<svg xmlns="http://www.w3.org/2000/svg">
  <defs>
    <svg id="curve-auto-colon" xmlns="http://www.w3.org/2000/svg" viewBox="0 0 32 32">
      <defs>
        <style>.cls-1 {
            fill: none;
        }</style>
      </defs>
      <path
        d="M9.5,8H20.1a5,5,0,1,0,0-2H9.5a5.5,5.5,0,0,0,0,11h11a3.5,3.5,0,0,1,0,7H11.9a5,5,0,1,0,0,2h8.6a5.5,5.5,0,0,0,0-11H9.5a3.5,3.5,0,0,1,0-7ZM25,4a3,3,0,1,1-3,3A3,3,0,0,1,25,4ZM7,28a3,3,0,1,1,3-3A3,3,0,0,1,7,28Z" />
      <rect id="_Transparent_Rectangle_" data-name="&lt;Transparent Rectangle&gt;" class="cls-1" width="32"
            height="32" />
    </svg>

    <svg id="add-comment" xmlns="http://www.w3.org/2000/svg" viewBox="0 0 32 32">
      <defs>
        <style>.cls-1 {
            fill: none;
        }</style>
      </defs>
      <path
        d="M17.74,30,16,29l4-7h6a2,2,0,0,0,2-2V8a2,2,0,0,0-2-2H6A2,2,0,0,0,4,8V20a2,2,0,0,0,2,2h9v2H6a4,4,0,0,1-4-4V8A4,4,0,0,1,6,4H26a4,4,0,0,1,4,4V20a4,4,0,0,1-4,4H21.16Z"
        transform="translate(0 0)" />
      <polygon points="17 9 15 9 15 13 11 13 11 15 15 15 15 19 17 19 17 15 21 15 21 13 17 13 17 9" />
      <rect id="_Transparent_Rectangle_" data-name="&lt;Transparent Rectangle&gt;" class="cls-1" width="32"
            height="32" />
    </svg>

    <svg id="collapse-categories" xmlns="http://www.w3.org/2000/svg" width="32" height="32" viewBox="0 0 32 32">
      <defs>
        <style>.cls-1 {
            fill: none;
        }</style>
      </defs>
      <rect x="14" y="25" width="14" height="2" />
      <polygon points="7.17 26 4.59 28.58 6 30 10 26 6 22 4.58 23.41 7.17 26" />
      <rect x="14" y="15" width="14" height="2" />
      <polygon points="7.17 16 4.59 18.58 6 20 10 16 6 12 4.58 13.41 7.17 16" />
      <rect x="14" y="5" width="14" height="2" />
      <polygon points="7.17 6 4.59 8.58 6 10 10 6 6 2 4.58 3.41 7.17 6" />
      <rect id="_Transparent_Rectangle_" data-name="&lt;Transparent Rectangle&gt;" class="cls-1" width="32"
            height="32" />
    </svg>

    <svg id="dashboard" xmlns="http://www.w3.org/2000/svg" width="32" height="32" viewBox="0 0 32 32">
      <defs>
        <style>.cls-1 {
            fill: none;
        }</style>
      </defs>
      <rect x="24" y="21" width="2" height="5" />
      <rect x="20" y="16" width="2" height="10" />
      <path d="M11,26a5.0059,5.0059,0,0,1-5-5H8a3,3,0,1,0,3-3V16a5,5,0,0,1,0,10Z" />
      <path
        d="M28,2H4A2.002,2.002,0,0,0,2,4V28a2.0023,2.0023,0,0,0,2,2H28a2.0027,2.0027,0,0,0,2-2V4A2.0023,2.0023,0,0,0,28,2Zm0,9H14V4H28ZM12,4v7H4V4ZM4,28V13H28.0007l.0013,15Z" />
      <rect id="_Transparent_Rectangle_" data-name="&lt;Transparent Rectangle&gt;" class="cls-1" width="32"
            height="32" />
    </svg>

    <svg version="1.1" id="document" xmlns="http://www.w3.org/2000/svg" x="0px"
         y="0px"
         width="32px" height="32px" viewBox="0 0 32 32" style="enable-background:new 0 0 32 32;" xml:space="preserve">
          <style type="text/css">
          .st0 {
              fill: none;
          }
        </style>
      <path d="M25.7,9.3l-7-7C18.5,2.1,18.3,2,18,2H8C6.9,2,6,2.9,6,4v24c0,1.1,0.9,2,2,2h16c1.1,0,2-0.9,2-2V10C26,9.7,25.9,9.5,25.7,9.3
          z M18,4.4l5.6,5.6H18V4.4z M24,28H8V4h8v6c0,1.1,0.9,2,2,2h6V28z" />
      <rect x="10" y="22" width="12" height="2" />
      <rect x="10" y="16" width="12" height="2" />
      <rect class="st0" width="32" height="32" />
    </svg>

    <svg id="filters" xmlns="http://www.w3.org/2000/svg" viewBox="0 0 32 32">
      <defs>
        <style>.cls-1 {
            fill: none;
        }</style>
      </defs>
      <path
        d="M18,28H14a2,2,0,0,1-2-2V18.41L4.59,11A2,2,0,0,1,4,9.59V6A2,2,0,0,1,6,4H26a2,2,0,0,1,2,2V9.59A2,2,0,0,1,27.41,11L20,18.41V26A2,2,0,0,1,18,28ZM6,6V9.59l8,8V26h4V17.59l8-8V6Z" />
      <rect id="_Transparent_Rectangle_" data-name="&lt;Transparent Rectangle&gt;" class="cls-1" width="32"
            height="32" />
    </svg>

    <svg id="folders" xmlns="http://www.w3.org/2000/svg" width="32" height="32" viewBox="0 0 32 32">
      <defs>
        <style>.cls-1 {
            fill: none;
        }</style>
      </defs>
      <path
        d="M26,28H6a2.0021,2.0021,0,0,1-2-2V11A2.0021,2.0021,0,0,1,6,9h5.6665a2.0119,2.0119,0,0,1,1.2007.4L16.3335,12H26a2.0021,2.0021,0,0,1,2,2V26A2.0021,2.0021,0,0,1,26,28ZM11.6665,11H5.9985L6,26H26V14H15.6665Z" />
      <path d="M28,9H17.6665l-4-3H6V4h7.6665a2.0119,2.0119,0,0,1,1.2007.4L18.3335,7H28Z" />
      <rect id="_Transparent_Rectangle_" data-name="&lt;Transparent Rectangle&gt;" class="cls-1" width="32"
            height="32" />
    </svg>

    <svg id="help" xmlns="http://www.w3.org/2000/svg" viewBox="0 0 32 32">
      <defs>
        <style>.cls-1 {
            fill: none;
        }</style>
      </defs>
      <path d="M16,2A14,14,0,1,0,30,16,14,14,0,0,0,16,2Zm0,26A12,12,0,1,1,28,16,12,12,0,0,1,16,28Z" />
      <circle cx="16" cy="23.5" r="1.5" />
      <path
        d="M17,8H15.5A4.49,4.49,0,0,0,11,12.5V13h2v-.5A2.5,2.5,0,0,1,15.5,10H17a2.5,2.5,0,0,1,0,5H15v4.5h2V17a4.5,4.5,0,0,0,0-9Z" />
      <rect class="cls-1" width="32" height="32" />
    </svg>

    <svg id="ica-2d" xmlns="http://www.w3.org/2000/svg" width="32" height="32" viewBox="0 0 32 32">
      <defs>
        <style>
            .cls-1 {
                fill: none;
            }
        </style>
      </defs>
      <path
        d="M22,24H10a2.0023,2.0023,0,0,1-2-2V10a2.0023,2.0023,0,0,1,2-2H22a2.0023,2.0023,0,0,1,2,2V22A2.0023,2.0023,0,0,1,22,24ZM10,10V22H22V10Z" />
      <polygon points="11 2 2 2 2 11 4 11 4 4 11 4 11 2" />
      <polygon points="2 21 2 30 11 30 11 28 4 28 4 21 2 21" />
      <polygon points="30 11 30 2 21 2 21 4 28 4 28 11 30 11" />
      <polygon points="21 30 30 30 30 21 28 21 28 28 21 28 21 30" />
      <rect id="_Transparent_Rectangle_" data-name="&lt;Transparent Rectangle&gt;" class="cls-1" width="32"
            height="32" />
    </svg>

    <svg id="layers" data-name="layers" xmlns="http://www.w3.org/2000/svg" width="32" height="32" viewBox="0 0 32 32">
      <defs>
        <style>
            .cls-1 {
                fill: none;
            }
        </style>
      </defs>
      <path
        d="M16,24a.9967.9967,0,0,1-.4741-.12l-13-7L3.4741,15.12,16,21.8643,28.5259,15.12l.9482,1.7607-13,7A.9967.9967,0,0,1,16,24Z"
        transform="translate(0 0)" />
      <path
        d="M16,30a.9967.9967,0,0,1-.4741-.12l-13-7L3.4741,21.12,16,27.8643,28.5259,21.12l.9482,1.7607-13,7A.9967.9967,0,0,1,16,30Z"
        transform="translate(0 0)" />
      <path
        d="M16,18a.9967.9967,0,0,1-.4741-.12l-13-7a1,1,0,0,1,0-1.7607l13-7a.9982.9982,0,0,1,.9482,0l13,7a1,1,0,0,1,0,1.7607l-13,7A.9967.9967,0,0,1,16,18ZM5.1094,10,16,15.8643,26.8906,10,16,4.1358Z"
        transform="translate(0 0)" />
      <rect id="_Transparent_Rectangle_" data-name="&lt;Transparent Rectangle&gt;" class="cls-1" width="32"
            height="32" />
    </svg>

    <svg id="list" xmlns="http://www.w3.org/2000/svg" viewBox="0 0 32 32">
      <defs>
        <style>.cls-1 {
            fill: none;
        }</style>
      </defs>
      <rect x="10" y="6" width="18" height="2" />
      <rect x="10" y="24" width="18" height="2" />
      <rect x="10" y="15" width="18" height="2" />
      <rect x="4" y="15" width="2" height="2" />
      <rect x="4" y="6" width="2" height="2" />
      <rect x="4" y="24" width="2" height="2" />
      <rect id="_Transparent_Rectangle_" data-name="&lt;Transparent Rectangle&gt;" class="cls-1" width="32"
            height="32" />
    </svg>

    <svg id="notification" xmlns="http://www.w3.org/2000/svg" width="32" height="32" viewBox="0 0 32 32">
      <defs>
        <style>
            .cls-1 {
                fill: none;
            }
        </style>
      </defs>
      <path
        d="M28.7071,19.293,26,16.5859V13a10.0136,10.0136,0,0,0-9-9.9492V1H15V3.0508A10.0136,10.0136,0,0,0,6,13v3.5859L3.2929,19.293A1,1,0,0,0,3,20v3a1,1,0,0,0,1,1h7v.7768a5.152,5.152,0,0,0,4.5,5.1987A5.0057,5.0057,0,0,0,21,25V24h7a1,1,0,0,0,1-1V20A1,1,0,0,0,28.7071,19.293ZM19,25a3,3,0,0,1-6,0V24h6Zm8-3H5V20.4141L7.707,17.707A1,1,0,0,0,8,17V13a8,8,0,0,1,16,0v4a1,1,0,0,0,.293.707L27,20.4141Z" />
      <rect id="_Transparent_Rectangle_" data-name="&lt;Transparent Rectangle&gt;" class="cls-1" width="32"
            height="32" />
    </svg>

    <svg id="notification-new" xmlns="http://www.w3.org/2000/svg" width="32" height="32" viewBox="0 0 32 32">
      <defs>
        <style>
            .cls-1 {
                fill: none;
            }
        </style>
      </defs>
      <path
        d="M26,16.5859V14H24v3a1,1,0,0,0,.293.707L27,20.4141V22H5V20.4141L7.707,17.707A1,1,0,0,0,8,17V13A7.9854,7.9854,0,0,1,20,6.0825V3.8467a9.896,9.896,0,0,0-3-.7959V1H15V3.0508A10.0136,10.0136,0,0,0,6,13v3.5859L3.293,19.293A1,1,0,0,0,3,20v3a1,1,0,0,0,1,1h7v1a5,5,0,0,0,10,0V24h7a1,1,0,0,0,1-1V20a1,1,0,0,0-.293-.707ZM19,25a3,3,0,0,1-6,0V24h6Z" />
      <circle cx="26" cy="8" r="4" />
      <rect id="_Transparent_Rectangle_" data-name="&lt;Transparent Rectangle&gt;" class="cls-1" width="32"
            height="32" />
    </svg>

    <svg id="search" xmlns="http://www.w3.org/2000/svg" width="32" height="32" viewBox="0 0 32 32">
      <defs>
        <style>
            .cls-1 {
                fill: none;
            }
        </style>
      </defs>
      <path
        d="M29,27.5859l-7.5521-7.5521a11.0177,11.0177,0,1,0-1.4141,1.4141L27.5859,29ZM4,13a9,9,0,1,1,9,9A9.01,9.01,0,0,1,4,13Z"
        transform="translate(0 0)" />
      <rect id="_Transparent_Rectangle_" data-name="&lt;Transparent Rectangle&gt;" class="cls-1" width="32"
            height="32" />
    </svg>


    <svg id="settings" xmlns="http://www.w3.org/2000/svg" viewBox="0 0 32 32">
      <defs>
        <style>.cls-1 {
            fill: none;
        }</style>
      </defs>
      <path
        d="M27,16.76c0-.25,0-.5,0-.76s0-.51,0-.77l1.92-1.68A2,2,0,0,0,29.3,11L26.94,7a2,2,0,0,0-1.73-1,2,2,0,0,0-.64.1l-2.43.82a11.35,11.35,0,0,0-1.31-.75l-.51-2.52a2,2,0,0,0-2-1.61H13.64a2,2,0,0,0-2,1.61l-.51,2.52a11.48,11.48,0,0,0-1.32.75L7.43,6.06A2,2,0,0,0,6.79,6,2,2,0,0,0,5.06,7L2.7,11a2,2,0,0,0,.41,2.51L5,15.24c0,.25,0,.5,0,.76s0,.51,0,.77L3.11,18.45A2,2,0,0,0,2.7,21L5.06,25a2,2,0,0,0,1.73,1,2,2,0,0,0,.64-.1l2.43-.82a11.35,11.35,0,0,0,1.31.75l.51,2.52a2,2,0,0,0,2,1.61h4.72a2,2,0,0,0,2-1.61l.51-2.52a11.48,11.48,0,0,0,1.32-.75l2.42.82a2,2,0,0,0,.64.1,2,2,0,0,0,1.73-1L29.3,21a2,2,0,0,0-.41-2.51ZM25.21,24l-3.43-1.16a8.86,8.86,0,0,1-2.71,1.57L18.36,28H13.64l-.71-3.55a9.36,9.36,0,0,1-2.7-1.57L6.79,24,4.43,20l2.72-2.4a8.9,8.9,0,0,1,0-3.13L4.43,12,6.79,8l3.43,1.16a8.86,8.86,0,0,1,2.71-1.57L13.64,4h4.72l.71,3.55a9.36,9.36,0,0,1,2.7,1.57L25.21,8,27.57,12l-2.72,2.4a8.9,8.9,0,0,1,0,3.13L27.57,20Z"
        transform="translate(0 0)" />
      <path
        d="M16,22a6,6,0,1,1,6-6A5.94,5.94,0,0,1,16,22Zm0-10a3.91,3.91,0,0,0-4,4,3.91,3.91,0,0,0,4,4,3.91,3.91,0,0,0,4-4A3.91,3.91,0,0,0,16,12Z"
        transform="translate(0 0)" />
      <rect id="_Transparent_Rectangle_" data-name="&lt;Transparent Rectangle&gt;" class="cls-1" width="32"
            height="32" />
    </svg>

    <svg version="1.1" id="settings-adjust" xmlns="http://www.w3.org/2000/svg" x="0px"
         y="0px"
         width="32px" height="32px" viewBox="0 0 32 32" style="enable-background:new 0 0 32 32;" xml:space="preserve">
          <style type="text/css">
            .st0 {
                fill: none;
            }
          </style>
      <path d="M30,8h-4.1c-0.5-2.3-2.5-4-4.9-4s-4.4,1.7-4.9,4H2v2h14.1c0.5,2.3,2.5,4,4.9,4s4.4-1.7,4.9-4H30V8z M21,12c-1.7,0-3-1.3-3-3
      s1.3-3,3-3s3,1.3,3,3S22.7,12,21,12z" />
      <path d="M2,24h4.1c0.5,2.3,2.5,4,4.9,4s4.4-1.7,4.9-4H30v-2H15.9c-0.5-2.3-2.5-4-4.9-4s-4.4,1.7-4.9,4H2V24z M11,20c1.7,0,3,1.3,3,3
      s-1.3,3-3,3s-3-1.3-3-3S9.3,20,11,20z" />
      <rect id="_Transparent_Rectangle_" class="st0" width="32" height="32" />
    </svg>

    <svg id="share" xmlns="http://www.w3.org/2000/svg" viewBox="0 0 32 32">
      <defs>
        <style>.cls-1 {
            fill: none;
        }</style>
      </defs>
      <path
        d="M23,20a5,5,0,0,0-3.89,1.89L11.8,17.32a4.46,4.46,0,0,0,0-2.64l7.31-4.57A5,5,0,1,0,18,7a4.79,4.79,0,0,0,.2,1.32l-7.31,4.57a5,5,0,1,0,0,6.22l7.31,4.57A4.79,4.79,0,0,0,18,25a5,5,0,1,0,5-5ZM23,4a3,3,0,1,1-3,3A3,3,0,0,1,23,4ZM7,19a3,3,0,1,1,3-3A3,3,0,0,1,7,19Zm16,9a3,3,0,1,1,3-3A3,3,0,0,1,23,28Z" />
      <rect id="_Transparent_Rectangle_" data-name="&lt;Transparent Rectangle&gt;" class="cls-1" width="32" height="32"
            transform="translate(0 32) rotate(-90)" />
    </svg>

    <svg version="1.1" id="tools-alt" xmlns="http://www.w3.org/2000/svg" x="0px"
         y="0px"
         width="32px" height="32px" viewBox="0 0 32 32" style="enable-background:new 0 0 32 32;" xml:space="preserve">
      <style type="text/css">
        .st0 {
            fill: none;
        }
      </style>
      <path d="M23.1,16l6.3-6.3c0.8-0.8,0.8-2,0-2.8l-4.2-4.2c-0.8-0.8-2-0.8-2.8,0L16,8.9L9.7,2.6c-0.8-0.8-2-0.8-2.8,0L2.6,6.8
        c-0.8,0.8-0.8,2,0,2.8L8.9,16L2,22.9V30h7.1l6.9-6.9l6.3,6.3c0.8,0.8,2,0.8,2.8,0l4.2-4.2c0.8-0.8,0.8-2,0-2.8L23.1,16z M23.8,4
        L28,8.2l-6.3,6.3l-4.2-4.2L23.8,4z M8.2,28H4v-4.2l6.3-6.3l4.2,4.2L8.2,28z M23.8,28L4,8.2L8.2,4l3.5,3.5L9.6,9.6l1.4,1.4l2.1-2.1
        l4.2,4.2l-2.1,2.1l1.4,1.4l2.1-2.1l4.2,4.2L21,20.9l1.4,1.4l2.1-2.1l3.5,3.5L23.8,28z" />
      <rect id="_x3C_Transparent_Rectangle_x3E_" x="0" y="0" class="st0" width="32" height="32" />
    </svg>

    <svg id="user-avatar-filled" xmlns="http://www.w3.org/2000/svg" width="32" height="32" viewBox="0 0 32 32">
      <defs>
        <style>
            .cls-1 {
                fill: none;
            }
        </style>
      </defs>
      <path id="_inner-path_" data-name="&lt;inner-path&gt;" class="cls-1"
            d="M8.0071,24.93A4.9958,4.9958,0,0,1,13,20h6a4.9959,4.9959,0,0,1,4.9929,4.93,11.94,11.94,0,0,1-15.9858,0ZM20.5,12.5A4.5,4.5,0,1,1,16,8,4.5,4.5,0,0,1,20.5,12.5Z" />
      <path
        d="M26.7489,24.93A13.9893,13.9893,0,1,0,2,16a13.899,13.899,0,0,0,3.2511,8.93l-.02.0166c.07.0845.15.1567.2222.2392.09.1036.1864.2.28.3008.28.3033.5674.5952.87.87.0915.0831.1864.1612.28.2417.32.2759.6484.5372.99.7813.0441.0312.0832.0693.1276.1006v-.0127a13.9011,13.9011,0,0,0,16,0V27.48c.0444-.0313.0835-.0694.1276-.1006.3412-.2441.67-.5054.99-.7813.0936-.08.1885-.1586.28-.2417.3025-.2749.59-.5668.87-.87.0933-.1006.1894-.1972.28-.3008.0719-.0825.1522-.1547.2222-.2392ZM16,8a4.5,4.5,0,1,1-4.5,4.5A4.5,4.5,0,0,1,16,8ZM8.0071,24.93A4.9957,4.9957,0,0,1,13,20h6a4.9958,4.9958,0,0,1,4.9929,4.93,11.94,11.94,0,0,1-15.9858,0Z" />
      <rect id="_Transparent_Rectangle_" data-name="&lt;Transparent Rectangle&gt;" class="cls-1" width="32"
            height="32" />
    </svg>

    <svg id="cursor" xmlns="http://www.w3.org/2000/svg" viewBox="0 0 32 32">
      <defs>
        <style>.cls-1 {
            fill: none;
        }</style>
      </defs>
      <path
        d="M27.34,12.06l-22-8A1,1,0,0,0,4.06,5.34l8,22A1,1,0,0,0,13,28h0a1,1,0,0,0,.93-.63l3.84-9.6,9.6-3.84a1,1,0,0,0,0-1.87Zm-10.71,4h0l-.4.16-.16.4h0L13,24.2,6.67,6.67,24.2,13Z" />
      <rect id="_Transparent_Rectangle_" data-name="&lt;Transparent Rectangle&gt;" class="cls-1" width="32"
            height="32" />
    </svg>

    <svg id="checkmark" data-name="Layer 1" xmlns="http://www.w3.org/2000/svg" width="32" height="32"
         viewBox="0 0 32 32">
      <defs>
        <style>
            .cls-1 {
                fill: none;
            }
        </style>
      </defs>
      <polygon points="13 24 4 15 5.414 13.586 13 21.171 26.586 7.586 28 9 13 24" />
      <rect id="_Transparent_Rectangle_" data-name="&lt;Transparent Rectangle&gt;" class="cls-1" width="32"
            height="32" />
    </svg>

    <svg id="arrow-down" xmlns="http://www.w3.org/2000/svg" width="32" height="32" viewBox="0 0 32 32">
      <defs>
        <style>
            .cls-1 {
                fill: none;
            }
        </style>
      </defs>
      <polygon points="24.59 16.59 17 24.17 17 4 15 4 15 24.17 7.41 16.59 6 18 16 28 26 18 24.59 16.59" />
      <rect id="_Transparent_Rectangle_" data-name="&lt;Transparent Rectangle&gt;" class="cls-1" width="32"
            height="32" />
    </svg>

    <svg id="arrow-up" xmlns="http://www.w3.org/2000/svg" width="32" height="32" viewBox="0 0 32 32">
      <defs>
        <style>
            .cls-1 {
                fill: none;
            }
        </style>
      </defs>
      <polygon points="16 4 6 14 7.41 15.41 15 7.83 15 28 17 28 17 7.83 24.59 15.41 26 14 16 4"/>
      <rect id="_Transparent_Rectangle_" data-name="&lt;Transparent Rectangle&gt;" class="cls-1" width="32" height="32"/>
    </svg>

    <svg version="1.1" id="arrows-vertical" xmlns="http://www.w3.org/2000/svg" x="0px"
         y="0px" width="32px" height="32px" viewBox="0 0 32 32" style="enable-background:new 0 0 32 32;"
         xml:space="preserve">
        <style type="text/css">
          .st0 {
              fill: none;
          }
        </style>
      <polygon points="27.6,20.6 24,24.2 24,4 22,4 22,24.2 18.4,20.6 17,22 23,28 29,22 " />
      <polygon points="9,4 3,10 4.4,11.4 8,7.8 8,28 10,28 10,7.8 13.6,11.4 15,10 " />
      <rect id="_Transparent_Rectangle_" class="st0" width="32" height="32" />
    </svg>

    <svg id="collapse-categories" xmlns="http://www.w3.org/2000/svg" width="32" height="32" viewBox="0 0 32 32">
      <defs>
        <style>
            .cls-1 {
                fill: none;
            }
        </style>
      </defs>
      <rect x="14" y="25" width="14" height="2" />
      <polygon points="7.17 26 4.59 28.58 6 30 10 26 6 22 4.58 23.41 7.17 26" />
      <rect x="14" y="15" width="14" height="2" />
      <polygon points="7.17 16 4.59 18.58 6 20 10 16 6 12 4.58 13.41 7.17 16" />
      <rect x="14" y="5" width="14" height="2" />
      <polygon points="7.17 6 4.59 8.58 6 10 10 6 6 2 4.58 3.41 7.17 6" />
      <rect id="_Transparent_Rectangle_" data-name="&lt;Transparent Rectangle&gt;" class="cls-1" width="32"
            height="32" />
    </svg>

    <svg id="folders" xmlns="http://www.w3.org/2000/svg" width="32" height="32" viewBox="0 0 32 32">
      <defs>
        <style>
            .cls-1 {
                fill: none;
            }
        </style>
      </defs>
      <path
        d="M26,28H6a2.0021,2.0021,0,0,1-2-2V11A2.0021,2.0021,0,0,1,6,9h5.6665a2.0119,2.0119,0,0,1,1.2007.4L16.3335,12H26a2.0021,2.0021,0,0,1,2,2V26A2.0021,2.0021,0,0,1,26,28ZM11.6665,11H5.9985L6,26H26V14H15.6665Z"
      />
      <path d="M28,9H17.6665l-4-3H6V4h7.6665a2.0119,2.0119,0,0,1,1.2007.4L18.3335,7H28Z" />
      <rect id="_Transparent_Rectangle_" data-name="&lt;Transparent Rectangle&gt;" class="cls-1" width="32"
            height="32" />
    </svg>

    <svg id="map" xmlns="http://www.w3.org/2000/svg" viewBox="0 0 32 32">
      <defs>
        <style>
            .cls-1 {
                fill: none;
            }
        </style>
      </defs>
      <path
        d="M16,24l-6.09-8.6A8.14,8.14,0,0,1,16,2a8.08,8.08,0,0,1,8,8.13,8.2,8.2,0,0,1-1.8,5.13ZM16,4a6.07,6.07,0,0,0-6,6.13,6.19,6.19,0,0,0,1.49,4L16,20.52,20.63,14A6.24,6.24,0,0,0,22,10.13,6.07,6.07,0,0,0,16,4Z"
        transform="translate(0 0)"
      />
      <circle cx="16" cy="9" r="2" />
      <path
        d="M28,12H26v2h2V28H4V14H6V12H4a2,2,0,0,0-2,2V28a2,2,0,0,0,2,2H28a2,2,0,0,0,2-2V14A2,2,0,0,0,28,12Z"
        transform="translate(0 0)"
      />
      <rect id="_Transparent_Rectangle_" data-name="&lt;Transparent Rectangle&gt;" class="cls-1" width="32"
            height="32" />
    </svg>

    <svg id="ica-2d" xmlns="http://www.w3.org/2000/svg" width="32" height="32" viewBox="0 0 32 32">
      <defs>
        <style>
            .cls-1 {
                fill: none;
            }
        </style>
      </defs>
      <path
        d="M22,24H10a2.0023,2.0023,0,0,1-2-2V10a2.0023,2.0023,0,0,1,2-2H22a2.0023,2.0023,0,0,1,2,2V22A2.0023,2.0023,0,0,1,22,24ZM10,10V22H22V10Z"
      />
      <polygon points="11 2 2 2 2 11 4 11 4 4 11 4 11 2" />
      <polygon points="2 21 2 30 11 30 11 28 4 28 4 21 2 21" />
      <polygon points="30 11 30 2 21 2 21 4 28 4 28 11 30 11" />
      <polygon points="21 30 30 30 30 21 28 21 28 28 21 28 21 30" />
      <rect id="_Transparent_Rectangle_" data-name="&lt;Transparent Rectangle&gt;" class="cls-1" width="32"
            height="32" />
    </svg>

    <svg id="menu" xmlns="http://www.w3.org/2000/svg" viewBox="0 0 32 32">
      <defs>
        <style>.cls-1 {
            fill: none;
        }</style>
      </defs>
      <rect x="4" y="6" width="24" height="2" />
      <rect x="4" y="24" width="24" height="2" />
      <rect x="4" y="12" width="24" height="2" />
      <rect x="4" y="18" width="24" height="2" />
      <rect id="_Transparent_Rectangle_" data-name="&lt;Transparent Rectangle&gt;" class="cls-1" width="32"
            height="32" />
    </svg>

    <?xml version="1.0" encoding="UTF-8"?>
    <svg id="right-panel-close" xmlns="http://www.w3.org/2000/svg" width="32" height="32" viewBox="0 0 32 32">
      <defs>
        <style>
            .cls-1 {
                fill: none;
            }

            .cls-1, .cls-2 {
                stroke-width: 0px;
            }
        </style>
      </defs>
      <path class="cls-2"
            d="m2,6v20c0,1.1045.8955,2,2,2h24c1.1045,0,2-.8955,2-2V6c0-1.1045-.8955-2-2-2H4c-1.1045,0-2,.8955-2,2Zm20,0h6v20h-6V6Zm-18,0h16v20H4v-9h10.1699s-3.5801,3.5898-3.5801,3.5898l1.4102,1.4102,6-6-6-6-1.4102,1.4102,3.5801,3.5898H4V6Z" />
      <rect id="_Transparent_Rectangle_" data-name="&amp;lt;Transparent Rectangle&amp;gt;" class="cls-1" width="32"
            height="32" />
    </svg>

    <svg version="1.1" id="chevron-right" xmlns="http://www.w3.org/2000/svg" x="0px"
         y="0px"
         viewBox="0 0 32 32" style="enable-background:new 0 0 32 32;" xml:space="preserve">
      <style type="text/css">
        .st0 {
            fill: none;
        }
      </style>
      <polygon points="22,16 12,26 10.6,24.6 19.2,16 10.6,7.4 12,6 " />
      <rect id="_x3C_Transparent_Rectangle_x3E_" class="st0" width="32" height="32" />
    </svg>

    <svg version="1.1" id="chevron-left" xmlns="http://www.w3.org/2000/svg" x="0px"
         y="0px"
         viewBox="0 0 32 32" style="enable-background:new 0 0 32 32;" xml:space="preserve">
      <style type="text/css">
        .st0 {
            fill: none;
        }
      </style>
      <polygon points="10,16 20,6 21.4,7.4 12.8,16 21.4,24.6 20,26 " />
      <rect id="_x3C_Transparent_Rectangle_x3E_" class="st0" width="32" height="32" />
    </svg>

    <svg version="1.1" id="chevron-down" xmlns="http://www.w3.org/2000/svg" x="0px"
         y="0px"
         viewBox="0 0 32 32" style="enable-background:new 0 0 32 32;" xml:space="preserve">
        <style type="text/css">
          .st0 {
              fill: none;
          }
        </style>
      <polygon points="16,22 6,12 7.4,10.6 16,19.2 24.6,10.6 26,12 " />
      <rect id="_x3C_Transparent_Rectangle_x3E_" class="st0" width="32" height="32" />
    </svg>


    <svg id="right-panel-open" xmlns="http://www.w3.org/2000/svg" width="32" height="32" viewBox="0 0 32 32">
      <defs>
        <style>
            .cls-1 {
                fill: none;
            }

            .cls-1, .cls-2 {
                stroke-width: 0px;
            }
        </style>
      </defs>
      <path class="cls-2"
            d="m2,6v20c0,1.1045.8955,2,2,2h24c1.1045,0,2-.8955,2-2V6c0-1.1045-.8955-2-2-2H4c-1.1045,0-2,.8955-2,2Zm20,0h6v20h-6V6Zm-18,0h16v9h-10.1699s3.5798-3.5898,3.5798-3.5898l-1.4099-1.4102-6,6,6,6,1.4099-1.4102-3.5798-3.5898h10.1699v9H4V6Z" />
      <rect id="_Transparent_Rectangle_" data-name="&amp;lt;Transparent Rectangle&amp;gt;" class="cls-1" width="32"
            height="32" />
    </svg>

    <svg id="checkbox" xmlns="http://www.w3.org/2000/svg" viewBox="0 0 32 32">
      <defs>
        <style>.cls-1 {
            fill: none;
        }</style>
      </defs>
      <path d="M26,4H6A2,2,0,0,0,4,6V26a2,2,0,0,0,2,2H26a2,2,0,0,0,2-2V6A2,2,0,0,0,26,4ZM6,26V6H26V26Z" />
      <rect id="_Transparent_Rectangle_" data-name="&lt;Transparent Rectangle&gt;" class="cls-1" width="32"
            height="32" />
    </svg>

    <svg id="checkbox-checked" xmlns="http://www.w3.org/2000/svg" viewBox="0 0 32 32">
      <defs>
        <style>.cls-1 {
            fill: none;
        }</style>
      </defs>
      <path d="M26,4H6A2,2,0,0,0,4,6V26a2,2,0,0,0,2,2H26a2,2,0,0,0,2-2V6A2,2,0,0,0,26,4ZM6,26V6H26V26Z" />
      <polygon points="14 21.5 9 16.54 10.59 15 14 18.35 21.41 11 23 12.58 14 21.5" />
      <rect id="_Transparent_Rectangle_" data-name="&lt;Transparent Rectangle&gt;" class="cls-1" width="32"
            height="32" />
    </svg>

    <svg id="checkbox-checked-filled" xmlns="http://www.w3.org/2000/svg" width="32" height="32" viewBox="0 0 32 32">
      <defs>
        <style>
            .cls-1 {
                fill: none;
            }
        </style>
      </defs>
      <path
        d="M26,4H6A2,2,0,0,0,4,6V26a2,2,0,0,0,2,2H26a2,2,0,0,0,2-2V6A2,2,0,0,0,26,4ZM14,21.5,9,16.5427,10.5908,15,14,18.3456,21.4087,11l1.5918,1.5772Z"
        transform="translate(0 0)" />
      <path id="inner-path" class="cls-1" d="M14,21.5,9,16.5427,10.5908,15,14,18.3456,21.4087,11l1.5918,1.5772Z"
            transform="translate(0 0)" />
      <rect id="_Transparent_Rectangle_" data-name="&lt;Transparent Rectangle&gt;" class="cls-1" width="32"
            height="32" />
    </svg>

    <svg id="checkbox-indeterminate" xmlns="http://www.w3.org/2000/svg" viewBox="0 0 32 32">
      <defs>
        <style>.cls-1 {
            fill: none;
        }</style>
      </defs>
      <rect x="10" y="14" width="12" height="4" />
      <path d="M26,4H6A2,2,0,0,0,4,6V26a2,2,0,0,0,2,2H26a2,2,0,0,0,2-2V6A2,2,0,0,0,26,4ZM6,26V6H26V26Z" />
      <rect id="_Transparent_Rectangle_" data-name="&lt;Transparent Rectangle&gt;" class="cls-1" width="32"
            height="32" />
    </svg>

    <svg id="checkbox-indeterminate-filled" xmlns="http://www.w3.org/2000/svg" width="32" height="32"
         viewBox="0 0 32 32">
      <defs>
        <style>
            .cls-1 {
                fill: none;
            }
        </style>
      </defs>
      <path d="M26,4H6A2,2,0,0,0,4,6V26a2,2,0,0,0,2,2H26a2,2,0,0,0,2-2V6A2,2,0,0,0,26,4ZM22,18H10V14H22Z" />
      <path id="inner-path" class="cls-1" d="M22,18H10V14H22Z" />
      <rect id="_Transparent_Rectangle_" data-name="&lt;Transparent Rectangle&gt;" class="cls-1" width="32"
            height="32" />
    </svg>

    <svg id="tree-view-alt" xmlns="http://www.w3.org/2000/svg" width="1em" height="1em" viewBox="0 0 32 32">
      <path
        fill="currentColor"
        d="M23 9.005h6a2 2 0 0 0 2-2v-4a2 2 0 0 0-2-2h-6a2 2 0 0 0-2 2v1H11v-1a2 2 0 0 0-2-2H3a2 2 0 0 0-2 2v4a2 2 0 0 0 2 2h6a2 2 0 0 0 2-2v-1h4v20a2 2 0 0 0 2 2h4v1a2 2 0 0 0 2 2h6a2 2 0 0 0 2-2v-4a2 2 0 0 0-2-2h-6a2 2 0 0 0-2 2v1h-4v-9h4v1a2 2 0 0 0 2 2h6a2 2 0 0 0 2-2v-4a2 2 0 0 0-2-2h-6a2 2 0 0 0-2 2v1h-4v-9h4v1a2 2 0 0 0 2 2m0-6h6v4h-6Zm-14 4H3v-4h6Zm14 18h6v4h-6Zm0-11h6v4h-6Z"
      />
    </svg>

    <svg id="tree-view" xmlns="http://www.w3.org/2000/svg" width="1em" height="1em" viewBox="0 0 256 256">
      <path fill="currentColor"
            d="M176 150h32a14 14 0 0 0 14-14v-32a14 14 0 0 0-14-14h-32a14 14 0 0 0-14 14v10H86V78h10a14 14 0 0 0 14-14V32a14 14 0 0 0-14-14H64a14 14 0 0 0-14 14v32a14 14 0 0 0 14 14h10v114a22 22 0 0 0 22 22h66v10a14 14 0 0 0 14 14h32a14 14 0 0 0 14-14v-32a14 14 0 0 0-14-14h-32a14 14 0 0 0-14 14v10H96a10 10 0 0 1-10-10v-66h76v10a14 14 0 0 0 14 14M62 64V32a2 2 0 0 1 2-2h32a2 2 0 0 1 2 2v32a2 2 0 0 1-2 2H64a2 2 0 0 1-2-2m112 128a2 2 0 0 1 2-2h32a2 2 0 0 1 2 2v32a2 2 0 0 1-2 2h-32a2 2 0 0 1-2-2Zm0-88a2 2 0 0 1 2-2h32a2 2 0 0 1 2 2v32a2 2 0 0 1-2 2h-32a2 2 0 0 1-2-2Z" />
    </svg>

    <svg id="tree-view-filled" xmlns="http://www.w3.org/2000/svg" width="1em" height="1em" viewBox="0 0 256 256">
      <path fill="currentColor"
            d="M160 136v-8H88v64a8 8 0 0 0 8 8h64v-8a16 16 0 0 1 16-16h32a16 16 0 0 1 16 16v32a16 16 0 0 1-16 16h-32a16 16 0 0 1-16-16v-8H96a24 24 0 0 1-24-24V80h-8a16 16 0 0 1-16-16V32a16 16 0 0 1 16-16h32a16 16 0 0 1 16 16v32a16 16 0 0 1-16 16h-8v32h72v-8a16 16 0 0 1 16-16h32a16 16 0 0 1 16 16v32a16 16 0 0 1-16 16h-32a16 16 0 0 1-16-16" />
    </svg>

    <svg id="menu" xmlns="http://www.w3.org/2000/svg" width="1em" height="1em" viewBox="0 0 32 32">
      <path fill="currentColor" d="M4 6h24v2H4zm0 18h24v2H4zm0-12h24v2H4zm0 6h24v2H4z" />
    </svg>

    <svg id="palette" xmlns="http://www.w3.org/2000/svg" width="1em" height="1em" viewBox="0 0 32 32">
      <circle cx="10" cy="12" r="2" fill="currentColor" />
      <circle cx="16" cy="9" r="2" fill="currentColor" />
      <circle cx="22" cy="12" r="2" fill="currentColor" />
      <circle cx="23" cy="18" r="2" fill="currentColor" />
      <circle cx="19" cy="23" r="2" fill="currentColor" />
      <path
        fill="currentColor"
        d="M16.54 2A14 14 0 0 0 2 16a4.82 4.82 0 0 0 6.09 4.65l1.12-.31a3 3 0 0 1 3.79 2.9V27a3 3 0 0 0 3 3a14 14 0 0 0 14-14.54A14.05 14.05 0 0 0 16.54 2m8.11 22.31A11.93 11.93 0 0 1 16 28a1 1 0 0 1-1-1v-3.76a5 5 0 0 0-5-5a5 5 0 0 0-1.33.18l-1.12.31A2.82 2.82 0 0 1 4 16A12 12 0 0 1 16.47 4A12.18 12.18 0 0 1 28 15.53a11.9 11.9 0 0 1-3.35 8.79Z"
      />
    </svg>

    <svg id="language" xmlns="http://www.w3.org/2000/svg" width="1em" height="1em" viewBox="0 0 32 32">
      <path
        fill="currentColor"
        d="M16 2a14 14 0 1 0 14 14A14.016 14.016 0 0 0 16 2M4.02 16.394l1.338.446L7 19.303v1.283a1 1 0 0 0 .293.707L10 24v2.377a12 12 0 0 1-5.98-9.983M16 28a12 12 0 0 1-2.572-.285L14 26l1.805-4.512a1 1 0 0 0-.097-.926l-1.411-2.117a1 1 0 0 0-.832-.445h-4.93l-1.248-1.873L9.414 14H11v2h2v-2.734l3.868-6.77l-1.736-.992L14.277 7h-2.742L10.45 5.371A11.86 11.86 0 0 1 20 4.7V8a1 1 0 0 0 1 1h1.465a1 1 0 0 0 .832-.445l.877-1.316A12 12 0 0 1 26.894 11H22.82a1 1 0 0 0-.98.804l-.723 4.47a1 1 0 0 0 .54 1.055L25 19l.685 4.056A11.98 11.98 0 0 1 16 28"
      />
    </svg>

    <svg id="locked" xmlns="http://www.w3.org/2000/svg" viewBox="0 0 32 32">
      <defs>
        <style>.cls-1 {
            fill: none;
        }</style>
      </defs>
      <path
        d="M24,14H22V8A6,6,0,0,0,10,8v6H8a2,2,0,0,0-2,2V28a2,2,0,0,0,2,2H24a2,2,0,0,0,2-2V16A2,2,0,0,0,24,14ZM12,8a4,4,0,0,1,8,0v6H12ZM24,28H8V16H24Z" />
      <rect id="_Transparent_Rectangle_" data-name="&lt;Transparent Rectangle&gt;" class="cls-1" width="32"
            height="32" />
    </svg>

    <svg id="view-filled" xmlns="http://www.w3.org/2000/svg" viewBox="0 0 32 32">
      <defs>
        <style>.cls-1 {
            fill: none;
        }</style>
      </defs>
      <circle cx="16" cy="16" r="4" />
      <path
        d="M30.94,15.66A16.69,16.69,0,0,0,16,5,16.69,16.69,0,0,0,1.06,15.66a1,1,0,0,0,0,.68A16.69,16.69,0,0,0,16,27,16.69,16.69,0,0,0,30.94,16.34,1,1,0,0,0,30.94,15.66ZM16,22.5A6.5,6.5,0,1,1,22.5,16,6.51,6.51,0,0,1,16,22.5Z" />
      <rect id="_Transparent_Rectangle_" data-name="&lt;Transparent Rectangle&gt;" class="cls-1" width="32"
            height="32" />
    </svg>

    <svg id="view-off-filled" xmlns="http://www.w3.org/2000/svg" viewBox="0 0 32 32">
      <defs>
        <style>.cls-1 {
            fill: none;
        }</style>
      </defs>
      <path
        d="M30.94,15.66a16.4,16.4,0,0,0-5.73-7.45L30,3.41,28.59,2,2,28.59,3.41,30l5.1-5.09A15.38,15.38,0,0,0,16,27,16.69,16.69,0,0,0,30.94,16.34,1,1,0,0,0,30.94,15.66ZM16,22.5a6.46,6.46,0,0,1-3.83-1.26L14,19.43A4,4,0,0,0,19.43,14l1.81-1.81A6.49,6.49,0,0,1,16,22.5Z" />
      <path
        d="M4.53,21.81l5-5A6.84,6.84,0,0,1,9.5,16,6.51,6.51,0,0,1,16,9.5a6.84,6.84,0,0,1,.79.05l3.78-3.77A14.39,14.39,0,0,0,16,5,16.69,16.69,0,0,0,1.06,15.66a1,1,0,0,0,0,.68A15.86,15.86,0,0,0,4.53,21.81Z" />
      <rect id="_Transparent_Rectangle_" data-name="&lt;Transparent Rectangle&gt;" class="cls-1" width="32"
            height="32" />
    </svg>

    <svg id="auto-scroll" xmlns="http://www.w3.org/2000/svg" viewBox="0 0 32 32">
      <defs>
        <style>.cls-1 {
            fill: none;
        }</style>
      </defs>
      <path d="M12,16a4,4,0,1,0,4-4A4,4,0,0,0,12,16Zm6,0a2,2,0,1,1-2-2A2,2,0,0,1,18,16Z" />
      <polygon points="16 27.17 10.4 21.58 9 23 16 30 23 23 21.59 21.59 16 27.17" />
      <polygon points="16 4.83 21.58 10.4 23 9 16 2 9 9 10.41 10.41 16 4.83" />
      <rect id="_Transparent_Rectangle_" data-name="&lt;Transparent Rectangle&gt;" class="cls-1" width="32"
            height="32" />
    </svg>

    <svg id="reset" xmlns="http://www.w3.org/2000/svg" viewBox="0 0 32 32">
      <defs>
        <style>.cls-1 {
            fill: none;
        }</style>
      </defs>
      <path d="M18,28A12,12,0,1,0,6,16v6.2L2.4,18.6,1,20l6,6,6-6-1.4-1.4L8,22.2V16H8A10,10,0,1,1,18,26Z" />
      <rect id="_Transparent_Rectangle_" data-name="&lt;Transparent Rectangle&gt;" class="cls-1" width="32"
            height="32" />
    </svg>

    <svg id="upload-migration" xmlns="http://www.w3.org/2000/svg" width="1em" height="1em" viewBox="0 0 32 32">
      <path
        fill="currentColor"
        d="M22 30H10c-1.1 0-2-.9-2-2v-3h2v3h12v-3h2v3c0 1.1-.9 2-2 2m-7-15.2V25h2V14.8l2.6 2.6L21 16l-5-5l-5 5l1.4 1.4z"
      />
      <path
        fill="currentColor"
        d="M24.8 9.1C23.9 5 20.3 2 16 2S8.1 5 7.2 9.1c-3 .6-5.2 3.3-5.2 6.4C2 19.1 4.9 22 8.5 22H12v-2H8.5C6 20 4 18 4 15.5c0-2.3 1.8-4.3 4.1-4.5H9l.1-.8C9.5 6.6 12.5 4 16 4s6.5 2.6 6.9 6.1l.1.9l.8.1c2.3.2 4.1 2.2 4.1 4.5c0 2.5-2 4.5-4.5 4.5H20v2h3.5c3.6 0 6.5-2.9 6.5-6.5c0-3.2-2.2-5.9-5.2-6.5"
      />
    </svg>

    <svg id="upload-item" xmlns="http://www.w3.org/2000/svg" width="1em" height="1em" viewBox="0 0 32 32">
      <path fill="currentColor"
            d="m6 18l1.41 1.41L15 11.83V30h2V11.83l7.59 7.58L26 18L16 8zM6 8V4h20v4h2V4a2 2 0 0 0-2-2H6a2 2 0 0 0-2 2v4z" />
    </svg>

    <svg id="close" xmlns="http://www.w3.org/2000/svg" width="1em" height="1em" viewBox="0 0 32 32">
      <path
        fill="currentColor"
        d="M17.414 16L24 9.414L22.586 8L16 14.586L9.414 8L8 9.414L14.586 16L8 22.586L9.414 24L16 17.414L22.586 24L24 22.586z"
      />
    </svg>

    <svg id="collapse-all" xmlns="http://www.w3.org/2000/svg" width="1em" height="1em" viewBox="0 0 32 32">
      <path fill="currentColor" d="M30 15h-2V7H13V5h15a2 2 0 0 1 2 2Z" />
      <path fill="currentColor" d="M25 20h-2v-8H8v-2h15a2 2 0 0 1 2 2Z" />
      <path
        fill="currentColor"
        d="M18 27H4a2 2 0 0 1-2-2v-8a2 2 0 0 1 2-2h14a2 2 0 0 1 2 2v8a2 2 0 0 1-2 2M4 17v8h14.001L18 17Z"
      />
    </svg>

    <svg id="pause-outline" xmlns="http://www.w3.org/2000/svg" viewBox="0 0 32 32">
      <defs>
        <style>.cls-1 {
            fill: none;
        }</style>
      </defs>
      <polygon points="14 10 12 10 12 22 14 22 14 10 14 10" />
      <polygon points="20 10 18 10 18 22 20 22 20 10 20 10" />
      <path d="M16,4A12,12,0,1,1,4,16,12,12,0,0,1,16,4m0-2A14,14,0,1,0,30,16,14,14,0,0,0,16,2Z"
            transform="translate(0 0)" />
      <rect id="_Transparent_Rectangle_" data-name="&lt;Transparent Rectangle&gt;" class="cls-1" width="32"
            height="32" />
    </svg>

    <svg id="continue" xmlns="http://www.w3.org/2000/svg" width="32" height="32" viewBox="0 0 32 32">
      <defs>
        <style>
            .cls-1 {
                fill: none;
            }
        </style>
      </defs>
      <path
        d="M10,28a1,1,0,0,1-1-1V5a1,1,0,0,1,1.501-.8652l19,11a1,1,0,0,1,0,1.73l-19,11A.9975.9975,0,0,1,10,28ZM11,6.7344V25.2656L27,16Z" />
      <rect x="4" y="4" width="2" height="24" />
      <rect id="_Transparent_Rectangle_" data-name="&lt;Transparent Rectangle&gt;" class="cls-1" width="32"
            height="32" />
    </svg>

    <svg id="folder-move" xmlns="http://www.w3.org/2000/svg" width="32" height="32" viewBox="0 0 32 32">
      <defs>
        <style>
            .cls-1 {
                fill: none;
            }
        </style>
      </defs>
      <polygon points="18 13 16.59 14.41 19.17 17 10 17 10 19 19.17 19 16.59 21.59 18 23 23 18 18 13" />
      <path
        d="M11.1716,6l3.4142,3.4142L15.1716,10H28V26H4V6h7.1716m0-2H4A2,2,0,0,0,2,6V26a2,2,0,0,0,2,2H28a2,2,0,0,0,2-2V10a2,2,0,0,0-2-2H16L12.5858,4.5858A2,2,0,0,0,11.1716,4Z" />
      <rect id="_Transparent_Rectangle_" data-name="&lt;Transparent Rectangle&gt;" class="cls-1" width="32"
            height="32" />
    </svg>

    <svg id="checkmark-filled" xmlns="http://www.w3.org/2000/svg" width="32" height="32" viewBox="0 0 32 32">
      <defs>
        <style>
            .cls-1 {
                fill: none;
            }
        </style>
      </defs>
      <path
        d="M16,2A14,14,0,1,0,30,16,14,14,0,0,0,16,2ZM14,21.5908l-5-5L10.5906,15,14,18.4092,21.41,11l1.5957,1.5859Z" />
      <polygon id="inner-path" class="cls-1"
               points="14 21.591 9 16.591 10.591 15 14 18.409 21.41 11 23.005 12.585 14 21.591" />
      <rect id="_Transparent_Rectangle_" data-name="&lt;Transparent Rectangle&gt;" class="cls-1" width="32"
            height="32" />
    </svg>

    <svg version="1.1" id="overflow-menu-horizontal" xmlns="http://www.w3.org/2000/svg" x="0px"
         y="0px"
         width="32px" height="32px" viewBox="0 0 32 32" style="enable-background:new 0 0 32 32;" xml:space="preserve">
      <style type="text/css">
        .st0 {
            fill: none;
        }
      </style>
      <circle cx="8" cy="16" r="2" />
      <circle cx="16" cy="16" r="2" />
      <circle cx="24" cy="16" r="2" />
      <rect id="_Transparent_Rectangle_" class="st0" width="32" height="32" />
    </svg>

    <svg version="1.1" id="overflow-menu-vertical" xmlns="http://www.w3.org/2000/svg" x="0px"
         y="0px"
         width="32px" height="32px" viewBox="0 0 32 32" style="enable-background:new 0 0 32 32;" xml:space="preserve">
      <style type="text/css">
        .st0 {
            fill: none;
        }
      </style>
      <circle cx="16" cy="8" r="2" />
      <circle cx="16" cy="16" r="2" />
      <circle cx="16" cy="24" r="2" />
      <rect id="_Transparent_Rectangle_" class="st0" width="32" height="32" />
    </svg>

    <svg version="1.1" id="edit" xmlns="http://www.w3.org/2000/svg" x="0px"
         y="0px"
         width="32px" height="32px" viewBox="0 0 32 32" style="enable-background:new 0 0 32 32;" xml:space="preserve">
      <style type="text/css">
        .st0 {
            fill: none;
        }
      </style>
      <rect x="2" y="26" width="28" height="2" />
      <path d="M25.4,9c0.8-0.8,0.8-2,0-2.8c0,0,0,0,0,0l-3.6-3.6c-0.8-0.8-2-0.8-2.8,0c0,0,0,0,0,0l-15,15V24h6.4L25.4,9z M20.4,4L24,7.6
	     l-3,3L17.4,7L20.4,4z M6,22v-3.6l10-10l3.6,3.6l-10,10H6z" />
      <rect id="_Transparent_Rectangle_" class="st0" width="32" height="32" />
    </svg>

    <svg id="warning" xmlns="http://www.w3.org/2000/svg" viewBox="0 0 32 32">
      <defs>
        <style>.cls-1 {
            fill: none;
        }</style>
      </defs>
      <path d="M16,2A14,14,0,1,0,30,16,14,14,0,0,0,16,2Zm0,26A12,12,0,1,1,28,16,12,12,0,0,1,16,28Z"
            transform="translate(0 0)" />
      <rect x="15" y="8" width="2" height="11" />
      <path d="M16,22a1.5,1.5,0,1,0,1.5,1.5A1.5,1.5,0,0,0,16,22Z" transform="translate(0 0)" />
      <rect id="_Transparent_Rectangle_" data-name="&lt;Transparent Rectangle&gt;" class="cls-1" width="32"
            height="32" />
    </svg>

    <svg id="upload" xmlns="http://www.w3.org/2000/svg" width="32" height="32" viewBox="0 0 32 32">
      <defs>
        <style>
            .cls-1 {
                fill: none;
            }
        </style>
      </defs>
      <polygon points="6 18 7.41 19.41 15 11.83 15 30 17 30 17 11.83 24.59 19.41 26 18 16 8 6 18" />
      <path d="M6,8V4H26V8h2V4a2,2,0,0,0-2-2H6A2,2,0,0,0,4,4V8Z" />
      <rect id="_Transparent_Rectangle_" data-name="&lt;Transparent Rectangle&gt;" class="cls-1" width="32"
            height="32" />
    </svg>

    <svg id="info-filled" xmlns="http://www.w3.org/2000/svg" width="32" height="32" viewBox="0 0 32 32">
      <defs>
        <style>
            .cls-1 {
                fill: none;
            }
        </style>
      </defs>
      <path id="inner-path" class="cls-1"
            d="M16,8a1.5,1.5,0,1,1-1.5,1.5A1.5,1.5,0,0,1,16,8Zm4,13.875H17.125v-8H13v2.25h1.875v5.75H12v2.25h8Z"
            transform="translate(0 0)" />
      <path
        d="M16,2A14,14,0,1,0,30,16,14,14,0,0,0,16,2Zm0,6a1.5,1.5,0,1,1-1.5,1.5A1.5,1.5,0,0,1,16,8Zm4,16.125H12v-2.25h2.875v-5.75H13v-2.25h4.125v8H20Z"
        transform="translate(0 0)" />
      <rect id="_Transparent_Rectangle_" data-name="&lt;Transparent Rectangle&gt;" class="cls-1" width="32"
            height="32" />
    </svg>

    <svg id="checkmark-outline" xmlns="http://www.w3.org/2000/svg" width="32" height="32" viewBox="0 0 32 32">
      <defs>
        <style>
            .cls-1 {
                fill: none;
            }
        </style>
      </defs>
      <polygon points="14 21.414 9 16.413 10.413 15 14 18.586 21.585 11 23 12.415 14 21.414" />
      <path d="M16,2A14,14,0,1,0,30,16,14,14,0,0,0,16,2Zm0,26A12,12,0,1,1,28,16,12,12,0,0,1,16,28Z" />
      <rect id="_Transparent_Rectangle_" data-name="&lt;Transparent Rectangle&gt;" class="cls-1" width="32"
            height="32" />
    </svg>

    <svg id="load-balancer" xmlns="http://www.w3.org/2000/svg" width="32" height="32" viewBox="0 0 32 32">
      <defs>
        <style>
            .cls-1 {
                fill: none;
            }
        </style>
      </defs>
      <path d="M8,30H2V24H8ZM4,28H6V26H4Z" transform="translate(0 0)" />
      <path d="M19,30H13V24h6Zm-4-2h2V26H15Z" transform="translate(0 0)" />
      <path d="M30,30H24V24h6Zm-4-2h2V26H26Z" transform="translate(0 0)" />
      <path d="M16,10a4,4,0,1,1,4-4A4.0045,4.0045,0,0,1,16,10Zm0-6a2,2,0,1,0,2,2A2.002,2.002,0,0,0,16,4Z"
            transform="translate(0 0)" />
      <path
        d="M26,16H21a4.0045,4.0045,0,0,1-4-4H15a4.0045,4.0045,0,0,1-4,4H6a2.0023,2.0023,0,0,0-2,2v4H6V18h5A5.9694,5.9694,0,0,0,15,16.46V22h2V16.46A5.9694,5.9694,0,0,0,21,18h5v4h2V18A2.0023,2.0023,0,0,0,26,16Z"
        transform="translate(0 0)" />
      <rect id="_Transparent_Rectangle_" data-name="&lt;Transparent Rectangle&gt;" class="cls-1" width="32"
            height="32" />
    </svg>

    <svg id="folder" xmlns="http://www.w3.org/2000/svg" viewBox="0 0 32 32">
      <defs>
        <style>.cls-1 {
            fill: none;
        }</style>
      </defs>
      <path
        d="M11.17,6l3.42,3.41.58.59H28V26H4V6h7.17m0-2H4A2,2,0,0,0,2,6V26a2,2,0,0,0,2,2H28a2,2,0,0,0,2-2V10a2,2,0,0,0-2-2H16L12.59,4.59A2,2,0,0,0,11.17,4Z"
        transform="translate(0)" />
      <rect id="_Transparent_Rectangle_" data-name="&lt;Transparent Rectangle&gt;" class="cls-1" width="32"
            height="32" />
    </svg>

    <svg id="document-blank" xmlns="http://www.w3.org/2000/svg" width="32" height="32" viewBox="0 0 32 32">
      <defs>
        <style>.cls-1 {
            fill: none;
        }</style>
      </defs>
      <path
        d="M25.7,9.3l-7-7A.9078.9078,0,0,0,18,2H8A2.0059,2.0059,0,0,0,6,4V28a2.0059,2.0059,0,0,0,2,2H24a2.0059,2.0059,0,0,0,2-2V10A.9078.9078,0,0,0,25.7,9.3ZM18,4.4,23.6,10H18ZM24,28H8V4h8v6a2.0059,2.0059,0,0,0,2,2h6Z" />
      <rect id="_Transparent_Rectangle_" data-name="&lt;Transparent Rectangle&gt;" class="cls-1" width="32"
            height="32" />
    </svg>

    <svg id="image" xmlns="http://www.w3.org/2000/svg" viewBox="0 0 32 32">
      <defs>
        <style>.cls-1 {
            fill: none;
        }</style>
      </defs>
      <path d="M19,14a3,3,0,1,0-3-3A3,3,0,0,0,19,14Zm0-4a1,1,0,1,1-1,1A1,1,0,0,1,19,10Z" />
      <path
        d="M26,4H6A2,2,0,0,0,4,6V26a2,2,0,0,0,2,2H26a2,2,0,0,0,2-2V6A2,2,0,0,0,26,4Zm0,22H6V20l5-5,5.59,5.59a2,2,0,0,0,2.82,0L21,19l5,5Zm0-4.83-3.59-3.59a2,2,0,0,0-2.82,0L18,19.17l-5.59-5.59a2,2,0,0,0-2.82,0L6,17.17V6H26Z" />
      <rect id="_Transparent_Rectangle_" data-name="&lt;Transparent Rectangle&gt;" class="cls-1" width="32"
            height="32" />
    </svg>

    <svg id="information" xmlns="http://www.w3.org/2000/svg" width="32" height="32" viewBox="0 0 32 32">
      <defs>
        <style>
            .cls-1 {
                fill: none;
            }
        </style>
      </defs>
      <polygon points="17 22 17 14 13 14 13 16 15 16 15 22 12 22 12 24 20 24 20 22 17 22" />
      <path d="M16,8a1.5,1.5,0,1,0,1.5,1.5A1.5,1.5,0,0,0,16,8Z" />
      <path d="M16,30A14,14,0,1,1,30,16,14,14,0,0,1,16,30ZM16,4A12,12,0,1,0,28,16,12,12,0,0,0,16,4Z" />
      <rect id="_Transparent_Rectangle_" data-name="&lt;Transparent Rectangle&gt;" class="cls-1" width="32"
            height="32" />
    </svg>

    <svg id="in-progress" xmlns="http://www.w3.org/2000/svg" width="32" height="32" viewBox="0 0 32 32">
      <defs>
        <style>.cls-1 {
            fill: none;
        }</style>
      </defs>
      <path
        d="M16,2A14,14,0,1,0,30,16,14.0158,14.0158,0,0,0,16,2Zm0,26A12,12,0,0,1,16,4V16l8.4812,8.4814A11.9625,11.9625,0,0,1,16,28Z" />
      <rect id="_Transparent_Rectangle_" data-name="&lt;Transparent Rectangle&gt;" class="cls-1" width="32"
            height="32" />
    </svg>

    <svg id="in-progress-blue" xmlns="http://www.w3.org/2000/svg" width="32" height="32" viewBox="0 0 32 32">
      <defs>
        <style>.cls-1 {
            fill: #78a9ff;
        }</style>
      </defs>
      <path
        d="M16,2A14,14,0,1,0,30,16,14.0158,14.0158,0,0,0,16,2Zm0,26A12,12,0,0,1,16,4V16l8.4812,8.4814A11.9625,11.9625,0,0,1,16,28Z" />
      <rect id="_Transparent_Rectangle_" data-name="&lt;Transparent Rectangle&gt;" class="cls-1" width="32"
            height="32" />
    </svg>

    <svg id="clean" xmlns="http://www.w3.org/2000/svg" width="32" height="32" viewBox="0 0 32 32">
      <defs>
        <style>
            .cls-1 {
                fill: none;
            }
        </style>
      </defs>
      <rect x="20" y="18" width="6" height="2" transform="translate(46 38) rotate(-180)" />
      <rect x="24" y="26" width="6" height="2" transform="translate(54 54) rotate(-180)" />
      <rect x="22" y="22" width="6" height="2" transform="translate(50 46) rotate(-180)" />
      <path
        d="M17.0029,20a4.8952,4.8952,0,0,0-2.4044-4.1729L22,3,20.2691,2,12.6933,15.126A5.6988,5.6988,0,0,0,7.45,16.6289C3.7064,20.24,3.9963,28.6821,4.01,29.04a1,1,0,0,0,1,.96H20.0012a1,1,0,0,0,.6-1.8C17.0615,25.5439,17.0029,20.0537,17.0029,20ZM11.93,16.9971A3.11,3.11,0,0,1,15.0041,20c0,.0381.0019.208.0168.4688L9.1215,17.8452A3.8,3.8,0,0,1,11.93,16.9971ZM15.4494,28A5.2,5.2,0,0,1,14,25H12a6.4993,6.4993,0,0,0,.9684,3H10.7451A16.6166,16.6166,0,0,1,10,24H8a17.3424,17.3424,0,0,0,.6652,4H6c.031-1.8364.29-5.8921,1.8027-8.5527l7.533,3.35A13.0253,13.0253,0,0,0,17.5968,28Z" />
      <rect id="_Transparent_Rectangle_" data-name="&lt;Transparent Rectangle&gt;" class="cls-1" width="32"
            height="32" />
    </svg>

    <svg id="file-add" xmlns="http://www.w3.org/2000/svg" width="1em" height="1em" viewBox="0 0 20 20">
      <path fill="currentColor"
            d="M16.839 15h-2.865v-3.046a.7.7 0 0 0-.193-.498a.62.62 0 0 0-.468-.205a.62.62 0 0 0-.469.205a.7.7 0 0 0-.193.498v3.047H9.933a.62.62 0 0 0-.468.205a.7.7 0 0 0-.193.498a.7.7 0 0 0 .193.498a.62.62 0 0 0 .468.205h2.718v2.89a.7.7 0 0 0 .193.498a.62.62 0 0 0 .469.205q.275 0 .468-.205a.7.7 0 0 0 .193-.498v-2.89h2.865q.276 0 .468-.205a.7.7 0 0 0 .193-.498a.7.7 0 0 0-.193-.498a.62.62 0 0 0-.468-.205m.516-9.973L13.33.481l-.44-.479H3.78c-.17 0-.36-.01-.526.017A.83.83 0 0 0 2.742.3c-.281.318-.24.717-.24 1.108v17.185c0 .391-.045.814.24 1.11s.476.296.843.296H8.61q.276 0 .469-.205a.7.7 0 0 0 .193-.498a.7.7 0 0 0-.193-.498a.62.62 0 0 0-.469-.205H3.845L3.839 1.364h7.275v3.593c0 .391.152.743.391.996s.57.41.937.41h3.735v4.185a.7.7 0 0 0 .193.498a.62.62 0 0 0 .468.205q.276 0 .469-.205a.7.7 0 0 0 .192-.498V5.475l.001-.279zm-4.837-.172q-.062-.08-.075-.28V1.52l3.059 3.437H12.76q-.18-.024-.242-.103" />
    </svg>

    <svg id="folder-upload" xmlns="http://www.w3.org/2000/svg" width="16" height="16" viewBox="0 0 16 16">
      <g fill="none" fill-rule="evenodd">
        <path fill="currentColor"
              d="M4.585,1.99999969 C4.85152229,1.99978881 5.10710181,2.1059803 5.295,2.295 L7,3.99999969 L13,3.99999969 C13.5522847,3.99999969 14,4.44771525 14,4.99999969 L14,5.99999937 L13,5.99999937 L13,5 L6.585,5 L6.295,4.705 L4.585,3 L1,3 L1,13 L10,12.9999994 L10,13.9999994 L1,13.9999997 C0.487164161,13.9999997 0.0644928393,13.6139598 0.00672773133,13.1166209 L0,12.9999997 L0,2.99999969 C0,2.44771525 0.44771525,1.99999969 1,1.99999969 Z" />
        <polygon fill="currentColor"
                 points="16 11.5 15.293 10.793 14 12.086 14 8 13 8 13 12.086 11.707 10.793 11 11.5 13.5 14"
                 transform="matrix(1 0 0 -1 0 22)" />
      </g>
    </svg>

    <svg id="file-upload" xmlns="http://www.w3.org/2000/svg" width="16" height="16" viewBox="0 0 16 16">
      <path fill="currentColor" fill-rule="evenodd"
            d="M15,11.5 L14.293,12.207 L13,10.914 L13,15 L12,15 L12,10.914 L10.707,12.207 L10,11.5 L12.5,9 L15,11.5 L15,11.5 Z M9,14 L4,14 L4,2 L8,2 L8,5 C8.00159279,5.55162365 8.44837635,5.99840721 9,6 L12,6 L12,7.5 L13,7.5 L13,5 C13.0036251,4.86700447 12.9488072,4.73909597 12.85,4.65 L9.35,1.15 C9.26092414,1.0511647 9.13300202,0.996340928 9,1 L4,1 C3.44837635,1.00159279 3.00159279,1.44837635 3,2 L3,14 C3.00159279,14.5516236 3.44837635,14.9984072 4,15 L9,15 L9,14 Z M9,2.2 L11.8,5 L9,5 L9,2.2 Z" />
    </svg>

    <svg id="folder-add" xmlns="http://www.w3.org/2000/svg" width="16" height="16" viewBox="0 0 16 16">
      <path fill="currentColor" fill-rule="evenodd"
            d="M5.585,1.99999969 C5.85152229,1.99978881 6.10710181,2.1059803 6.295,2.295 L8,3.99999969 L14,3.99999969 C14.5522847,3.99999969 15,4.44771525 15,4.99999969 L15,12.9999997 C15,13.5522847 14.5522847,13.9999997 14,13.9999997 L2,13.9999997 C1.44771525,13.9999997 1,13.5522847 1,12.9999997 L1,2.99999969 C1,2.44771525 1.44771525,1.99999969 2,1.99999969 Z M12,8 L11,8 L11,10 L9,10 L9,11 L11,11 L11,13 L12,13 L12,11 L14,11 L14,10 L12,9.999 L12,8 Z" />
    </svg>

    <svg id="folder-filled" xmlns="http://www.w3.org/2000/svg" width="1em" height="1em" viewBox="0 0 24 24">
      <path fill="currentColor" d="M2 20V4h8l2 2h10v14z" />
    </svg>

    <svg id="trash" xmlns="http://www.w3.org/2000/svg" width="1em" height="1em" viewBox="0 0 256 256">
      <path fill="currentColor"
            d="M216 48h-40v-8a24 24 0 0 0-24-24h-48a24 24 0 0 0-24 24v8H40a8 8 0 0 0 0 16h8v144a16 16 0 0 0 16 16h128a16 16 0 0 0 16-16V64h8a8 8 0 0 0 0-16M96 40a8 8 0 0 1 8-8h48a8 8 0 0 1 8 8v8H96Zm96 168H64V64h128Zm-80-104v64a8 8 0 0 1-16 0v-64a8 8 0 0 1 16 0m48 0v64a8 8 0 0 1-16 0v-64a8 8 0 0 1 16 0" />
    </svg>

    <svg id="download" xmlns="http://www.w3.org/2000/svg" width="32" height="32" viewBox="0 0 32 32">
      <defs>
        <style>
            .cls-1 {
                fill: none;
            }
        </style>
      </defs>
      <path d="M26,24v4H6V24H4v4H4a2,2,0,0,0,2,2H26a2,2,0,0,0,2-2h0V24Z" />
      <polygon points="26 14 24.59 12.59 17 20.17 17 2 15 2 15 20.17 7.41 12.59 6 14 16 24 26 14" />
      <g id="_Transparent_Rectangle_" data-name="&lt;Transparent Rectangle&gt;">
        <rect class="cls-1" width="32" height="32" />
      </g>
    </svg>

    <svg id="folder-open" xmlns="http://www.w3.org/2000/svg" width="32" height="32" viewBox="0 0 32 32">
      <defs>
        <style>
            .cls-1 {
                fill: none;
            }
        </style>
      </defs>
      <path
        d="M28,8H20.8284L17.4143,4.5859A2,2,0,0,0,16,4H4A2,2,0,0,0,2,6V26a2,2,0,0,0,2,2H28a2,2,0,0,0,2-2V10A2,2,0,0,0,28,8ZM8,26V14h8v6.17l-2.59-2.58L12,19l5,5,5-5-1.41-1.41L18,20.17V14a2.0025,2.0025,0,0,0-2-2H8a2.0025,2.0025,0,0,0-2,2V26H4V6H16l4,4h8v2H22v2h6V26Z" />
      <rect id="_Transparent_Rectangle_" data-name="&lt;Transparent Rectangle&gt;" class="cls-1" width="32"
            height="32" />
    </svg>

    <svg id="pin" xmlns="http://www.w3.org/2000/svg" width="1em" height="1em" viewBox="0 0 32 32">
      <path
        fill="currentColor"
        d="M28.59 13.31L30 11.9L20 2l-1.31 1.42l1.18 1.18l-11.49 9.72l-1.72-1.71L5.25 14l5.66 5.68L2 28.58L3.41 30l8.91-8.91L18 26.75l1.39-1.42l-1.71-1.71l9.72-11.49ZM16.26 22.2L9.8 15.74L21.29 6L26 10.71Z"
      />
    </svg>

    <svg id="unlocked" xmlns="http://www.w3.org/2000/svg" width="1em" height="1em" viewBox="0 0 32 32">
      <path
        fill="currentColor"
        d="M24 14H12V8a4 4 0 0 1 8 0h2a6 6 0 0 0-12 0v6H8a2 2 0 0 0-2 2v12a2 2 0 0 0 2 2h16a2 2 0 0 0 2-2V16a2 2 0 0 0-2-2m0 14H8V16h16Z"
      />
    </svg>

    <svg id="go-to-folder" xmlns="http://www.w3.org/2000/svg" width="16" height="16" viewBox="0 0 16 16">
      <g fill="none" fill-rule="evenodd">
        <path
          fill="#F4F4F4"
          d="M4.585,1.99999969 C4.85152229,1.99978881 5.10710181,2.1059803 5.295,2.295 L7,3.99999969 L8,3.99999937 L8,4.99999937 L6.585,5 L6.295,4.705 L4.585,3 L1,3 L1,13 L13,13 L13,9.99999937 L14,9.99999937 L14,12.9999997 C14,13.5128358 13.6139598,13.9355069 13.1166211,13.993272 L13,13.9999997 L1,13.9999997 C0.44771525,13.9999997 0,13.5522847 0,12.9999997 L0,2.99999969 C0,2.44771525 0.44771525,1.99999969 1,1.99999969 Z"
        />
        <polygon fill="#F4F4F4" points="1 0 1 1 3.293 1 0 4.293 .707 5 4 1.707 4 4 5 4 5 0"
                 transform="translate(9 4)" />
      </g>
    </svg>


    <svg id="fit-to-screen" xmlns="http://www.w3.org/2000/svg" width="1em" height="1em" viewBox="0 0 32 32">
      <path fill="currentColor" d="M22 16h2V8h-8v2h6zM8 24h8v-2h-6v-6H8z" />
      <path
        fill="currentColor"
        d="M26 28H6a2 2 0 0 1-2-2V6a2 2 0 0 1 2-2h20a2 2 0 0 1 2 2v20a2 2 0 0 1-2 2M6 6v20h20.001L26 6Z"
      />
    </svg>

    <svg id="zoom-in" xmlns="http://www.w3.org/2000/svg" width="1em" height="1em" viewBox="0 0 32 32">
      <path fill="currentColor" d="M18 12h-4V8h-2v4H8v2h4v4h2v-4h4z" />
      <path
        fill="currentColor"
        d="M21.448 20A10.86 10.86 0 0 0 24 13a11 11 0 1 0-11 11a10.86 10.86 0 0 0 7-2.552L27.586 29L29 27.586ZM13 22a9 9 0 1 1 9-9a9.01 9.01 0 0 1-9 9"
      />
    </svg>

    <svg id="zoom-out" xmlns="http://www.w3.org/2000/svg" width="1em" height="1em" viewBox="0 0 32 32">
      <path fill="currentColor" d="M8 12h10v2H8z" />
      <path
        fill="currentColor"
        d="M21.448 20A10.86 10.86 0 0 0 24 13a11 11 0 1 0-11 11a10.86 10.86 0 0 0 7-2.552L27.586 29L29 27.586ZM13 22a9 9 0 1 1 9-9a9.01 9.01 0 0 1-9 9"
      />
    </svg>

    <svg id="chevron-up" xmlns="http://www.w3.org/2000/svg" width="1em" height="1em" viewBox="0 0 32 32">
      <path fill="currentColor" d="m16 10l10 10l-1.4 1.4l-8.6-8.6l-8.6 8.6L6 20z" />
    </svg>

    <svg id="attach" xmlns="http://www.w3.org/2000/svg" width="1em" height="1em" viewBox="0 0 32 32">
      <path
        fill="currentColor"
        d="M29.25 6.76a6 6 0 0 0-8.5 0l1.42 1.42a4 4 0 1 1 5.67 5.67l-8 8a4 4 0 1 1-5.67-5.66l1.41-1.42l-1.41-1.42l-1.42 1.42a6 6 0 0 0 0 8.5A6 6 0 0 0 17 25a6 6 0 0 0 4.27-1.76l8-8a6 6 0 0 0-.02-8.48"
      />
      <path
        fill="currentColor"
        d="M4.19 24.82a4 4 0 0 1 0-5.67l8-8a4 4 0 0 1 5.67 0A3.94 3.94 0 0 1 19 14a4 4 0 0 1-1.17 2.85L15.71 19l1.42 1.42l2.12-2.12a6 6 0 0 0-8.51-8.51l-8 8a6 6 0 0 0 0 8.51A6 6 0 0 0 7 28a6.07 6.07 0 0 0 4.28-1.76l-1.42-1.42a4 4 0 0 1-5.67 0"
      />
    </svg>

    <svg id="error-outline" xmlns="http://www.w3.org/2000/svg" width="1em" height="1em" viewBox="0 0 32 32">
      <path fill="currentColor" d="M9 10.555L10.555 9L23 21.444L21.444 23z" />
      <path
        fill="currentColor"
        d="M16 2A13.914 13.914 0 0 0 2 16a13.914 13.914 0 0 0 14 14a13.914 13.914 0 0 0 14-14A13.914 13.914 0 0 0 16 2m0 26a12 12 0 1 1 12-12a12.035 12.035 0 0 1-12 12"
      />
    </svg>
    <svg id="warning-alt-filled" xmlns="http://www.w3.org/2000/svg" width="32" height="32" viewBox="0 0 32 32">
      <path fill="none" d="M16 26a1.5 1.5 0 1 1 1.5-1.5A1.5 1.5 0 0 1 16 26m-1.125-5h2.25v-9h-2.25Z" />
      <path fill="currentColor"
            d="M16.002 6.171h-.004L4.648 27.997l.003.003h22.698l.002-.003ZM14.875 12h2.25v9h-2.25ZM16 26a1.5 1.5 0 1 1 1.5-1.5A1.5 1.5 0 0 1 16 26" />
      <path fill="currentColor"
            d="M29 30H3a1 1 0 0 1-.887-1.461l13-25a1 1 0 0 1 1.774 0l13 25A1 1 0 0 1 29 30M4.65 28h22.7l.001-.003L16.002 6.17h-.004L4.648 27.997Z" />
    </svg>

    <svg id="trash-can" xmlns="http://www.w3.org/2000/svg" width="1em" height="1em" viewBox="0 0 32 32">
      <path fill="currentColor" d="M12 12h2v12h-2zm6 0h2v12h-2z" />
      <path fill="currentColor" d="M4 6v2h2v20a2 2 0 0 0 2 2h16a2 2 0 0 0 2-2V8h2V6zm4 22V8h16v20zm4-26h8v2h-8z" />
    </svg>
    <svg id="add" xmlns="http://www.w3.org/2000/svg" width="1em" height="1em" viewBox="0 0 32 32">
      <path fill="currentColor" d="M17 15V8h-2v7H8v2h7v7h2v-7h7v-2z" />
    </svg>

    <svg version="1.1" id="caret-right" xmlns="http://www.w3.org/2000/svg" x="0px"
         y="0px"
         width="32px" height="32px" viewBox="0 0 32 32" style="enable-background:new 0 0 32 32;" xml:space="preserve">
      <style type="text/css">
        .st0 {
            fill: none;
        }
      </style>
      <polygon points="12,8 22,16 12,24 " />
      <rect class="st0" width="32" height="32" />
    </svg>

    <svg id="view" xmlns="http://www.w3.org/2000/svg" viewBox="0 0 32 32">
      <defs>
        <style>.cls-1 {
            fill: none;
        }</style>
      </defs>
      <path
        d="M30.94,15.66A16.69,16.69,0,0,0,16,5,16.69,16.69,0,0,0,1.06,15.66a1,1,0,0,0,0,.68A16.69,16.69,0,0,0,16,27,16.69,16.69,0,0,0,30.94,16.34,1,1,0,0,0,30.94,15.66ZM16,25c-5.3,0-10.9-3.93-12.93-9C5.1,10.93,10.7,7,16,7s10.9,3.93,12.93,9C26.9,21.07,21.3,25,16,25Z"
        transform="translate(0 0)" />
      <path d="M16,10a6,6,0,1,0,6,6A6,6,0,0,0,16,10Zm0,10a4,4,0,1,1,4-4A4,4,0,0,1,16,20Z" transform="translate(0 0)" />
      <rect id="_Transparent_Rectangle_" data-name="&lt;Transparent Rectangle&gt;" class="cls-1" width="32"
            height="32" />
    </svg>

    <svg id="view-off" xmlns="http://www.w3.org/2000/svg" viewBox="0 0 32 32">
      <defs>
        <style>.cls-1 {
            fill: none;
        }</style>
      </defs>
      <path
        d="M5.24,22.51l1.43-1.42A14.06,14.06,0,0,1,3.07,16C5.1,10.93,10.7,7,16,7a12.38,12.38,0,0,1,4,.72l1.55-1.56A14.72,14.72,0,0,0,16,5,16.69,16.69,0,0,0,1.06,15.66a1,1,0,0,0,0,.68A16,16,0,0,0,5.24,22.51Z" />
      <path d="M12,15.73a4,4,0,0,1,3.7-3.7l1.81-1.82a6,6,0,0,0-7.33,7.33Z" />
      <path
        d="M30.94,15.66A16.4,16.4,0,0,0,25.2,8.22L30,3.41,28.59,2,2,28.59,3.41,30l5.1-5.1A15.29,15.29,0,0,0,16,27,16.69,16.69,0,0,0,30.94,16.34,1,1,0,0,0,30.94,15.66ZM20,16a4,4,0,0,1-6,3.44L19.44,14A4,4,0,0,1,20,16Zm-4,9a13.05,13.05,0,0,1-6-1.58l2.54-2.54a6,6,0,0,0,8.35-8.35l2.87-2.87A14.54,14.54,0,0,1,28.93,16C26.9,21.07,21.3,25,16,25Z" />
      <rect id="_Transparent_Rectangle_" data-name="&lt;Transparent Rectangle&gt;" class="cls-1" width="32"
            height="32" />
    </svg>

    <svg id="view-mixed" xmlns="http://www.w3.org/2000/svg" width="16" height="16" viewBox="0 0 16 16">
      <path fill="currentColor" fill-rule="evenodd"
            d="M15.47 7.83C14.8988655 6.33541314 13.9029615 5.04056417 12.605 4.105L15 1.705 14.295 1 1 14.295 1.705 15 4.255 12.455C5.39321235 13.1183713 6.68276277 13.4782058 8 13.5 11.3310488 13.3747359 14.2680152 11.2791494 15.47 8.17 15.5097164 8.0601462 15.5097164 7.9398538 15.47 7.83ZM8 11.25C7.31080139 11.2496839 6.63977286 11.0289277 6.085 10.62L7 9.715C7.77930743 10.1419912 8.74688923 10.0035846 9.37523689 9.37523689 10.0035846 8.74688923 10.1419912 7.77930743 9.715 7L10.62 6.095C11.3382266 7.08146686 11.4423398 8.38746027 10.8894726 9.47525814 10.3366054 10.563056 9.22023144 11.2487436 8 11.25ZM2.62 11.255 3.335 10.545C2.55210799 9.8420568 1.9369877 8.97234507 1.535 8 2.55 5.465 5.35 3.5 8 3.5 8.68194658 3.50900192 9.35771775 3.63064073 10 3.86L10.775 3.08C9.8963268 2.70866189 8.95384604 2.51167492 8 2.5 4.6689512 2.62526414 1.73198477 4.72085062.53 7.83.490283624 7.9398538.490283624 8.0601462.53 8.17.974123536 9.348509 1.69021409 10.4055135 2.62 11.255ZM6 7.865C6.07187319 6.87456969 6.85956969 6.08687319 7.85 6.015L8.755 5.105C7.72302431 4.83327439 6.62438618 5.1302085 5.86979734 5.88479734 5.1152085 6.63938618 4.81827439 7.73802431 5.09 8.77L6 7.865Z" />
    </svg>

    <svg id="logout" xmlns="http://www.w3.org/2000/svg" width="1em" height="1em" viewBox="0 0 32 32">
      <path fill="currentColor"
            d="M6 30h12a2 2 0 0 0 2-2v-3h-2v3H6V4h12v3h2V4a2 2 0 0 0-2-2H6a2 2 0 0 0-2 2v24a2 2 0 0 0 2 2" />
      <path fill="currentColor" d="M20.586 20.586L24.172 17H10v-2h14.172l-3.586-3.586L22 10l6 6l-6 6z" />
    </svg>

    <svg id="content-view" xmlns="http://www.w3.org/2000/svg" width="1em" height="1em" viewBox="0 0 32 32">
      <circle cx="16" cy="19" r="2" fill="currentColor" />
      <path
        fill="currentColor"
        d="M23.777 18.479A8.64 8.64 0 0 0 16 13a8.64 8.64 0 0 0-7.777 5.479L8 19l.223.522A8.64 8.64 0 0 0 16 25a8.64 8.64 0 0 0 7.777-5.478L24 19ZM16 23a4 4 0 1 1 4-4a4.005 4.005 0 0 1-4 4"
      />
      <path
        fill="currentColor"
        d="M27 3H5a2 2 0 0 0-2 2v22a2 2 0 0 0 2 2h22a2 2 0 0 0 2-2V5a2 2 0 0 0-2-2M5 5h22v4H5Zm0 22V11h22v16Z"
      />
    </svg>

    <svg id="select-02" xmlns="http://www.w3.org/2000/svg" width="1em" height="1em" viewBox="0 0 32 32">
      <g transform="rotate(180, 16, 16)">
        <path
          fill="currentColor"
          d="M12 6H8V2H6v4H2v2h4v4h2V8h4zm18 4V4h-6v2h-8v2h8v2h2v14h-2v2H10v-2H8v-8H6v8H4v6h6v-2h14v2h6v-6h-2V10zM8 28H6v-2h2zm20 0h-2v-2h2zM26 6h2v2h-2z"
        />
      </g>
    </svg>

    <svg id='area-custom' xmlns="http://www.w3.org/2000/svg" width="1em" height="1em" viewBox="0 0 32 32">
      <path fill="currentColor"
            d="M30 6a3.992 3.992 0 0 0-7.977-.224L9.586 8.263A3.99 3.99 0 1 0 5 13.858v8.284A3.992 3.992 0 1 0 9.858 27h8.284a3.991 3.991 0 1 0 5.595-4.586l2.487-12.437A3.995 3.995 0 0 0 30 6m-4-2a2 2 0 1 1-2 2a2 2 0 0 1 2-2M4 10a2 2 0 1 1 2 2a2 2 0 0 1-2-2m2 18a2 2 0 1 1 2-2a2 2 0 0 1-2 2m12.142-3H9.858A4 4 0 0 0 7 22.142v-8.284a3.99 3.99 0 0 0 2.977-3.634l12.437-2.487a4 4 0 0 0 1.849 1.85l-2.487 12.436A3.99 3.99 0 0 0 18.142 25M22 28a2 2 0 1 1 2-2a2 2 0 0 1-2 2" />
    </svg>

    <svg id='ibm-cloud-pak-network-automation' xmlns="http://www.w3.org/2000/svg" width="1em" height="1em"
         viewBox="0 0 32 32">
      <path fill="currentColor" d="M22.364 21.364L20.95 19.95a7 7 0 0 0 0-9.899l1.414-1.415a9 9 0 0 1 0 12.728" />
      <path fill="currentColor"
            d="m19.536 18.535l-1.414-1.414a3.004 3.004 0 0 0 0-4.242l1.414-1.414a5.005 5.005 0 0 1 0 7.07M17 26h-2V15a1 1 0 0 1 1-1a1 1 0 0 1 1 1zm-4.536-7.465a5.005 5.005 0 0 1 0-7.07l1.414 1.414a3.004 3.004 0 0 0 0 4.242z" />
      <path fill="currentColor" d="M9.636 21.364a9 9 0 0 1 0-12.728l1.414 1.415a7 7 0 0 0 0 9.898Z" />
      <path fill="currentColor"
            d="M16 31a1 1 0 0 1-.504-.136l-12-7A1 1 0 0 1 3 23V9a1 1 0 0 1 .496-.864l12-7a1 1 0 0 1 1.008 0l12 7l-1.008 1.728L16 3.158L5 9.574v12.852l11 6.417l11-6.417V15h2v8a1 1 0 0 1-.496.864l-12 7A1 1 0 0 1 16 31" />
    </svg>

    <svg id="choropleth-map" xmlns="http://www.w3.org/2000/svg" width="1em" height="1em" viewBox="0 0 32 32">
      <path
        fill="currentColor"
        d="m29.243 4.03l-8-2a1 1 0 0 0-.615.042l-9.7 3.88L3.243 4.03A1 1 0 0 0 2 5v22a1 1 0 0 0 .757.97l8 2A1 1 0 0 0 11 30a1 1 0 0 0 .372-.072l9.7-3.88l7.686 1.922A1 1 0 0 0 30 27V5a1 1 0 0 0-.757-.97M28 11h-6V4.28l6 1.5Zm-18 8H4v-6h6Zm2-8V7.677l8-3.2V11Zm8 2v6h-8v-6Zm-8 8h8v3.323l-8 3.2Zm10-8h6v6h-6ZM10 7.78V11H4V6.28ZM4 21h6v6.72l-6-1.5Zm18 3.219V21h6v4.72Z"
      />
    </svg>

    <svg id="task" xmlns="http://www.w3.org/2000/svg" viewBox="0 0 32 32">
      <defs>
        <style>.cls-1 {
            fill: none;
        }</style>
      </defs>
      <polygon points="14 20.18 10.41 16.59 9 18 14 23 23 14 21.59 12.58 14 20.18" />
      <path
        d="M25,5H22V4a2,2,0,0,0-2-2H12a2,2,0,0,0-2,2V5H7A2,2,0,0,0,5,7V28a2,2,0,0,0,2,2H25a2,2,0,0,0,2-2V7A2,2,0,0,0,25,5ZM12,4h8V8H12ZM25,28H7V7h3v3H22V7h3Z"
        transform="translate(0 0)" />
      <rect id="_Transparent_Rectangle_" data-name="&lt;Transparent Rectangle&gt;" class="cls-1" width="32"
            height="32" />
    </svg>

    <svg version="1.1" id="close-outline" xmlns="http://www.w3.org/2000/svg" x="0px"
         y="0px"
         width="32px" height="32px" viewBox="0 0 32 32" style="enable-background:new 0 0 32 32;" xml:space="preserve">
    <style type="text/css">
      .st0 {
          fill: none;
      }
    </style>
      <path d="M16,2C8.2,2,2,8.2,2,16s6.2,14,14,14s14-6.2,14-14S23.8,2,16,2z M16,28C9.4,28,4,22.6,4,16S9.4,4,16,4s12,5.4,12,12
      S22.6,28,16,28z" />
      <rect id="_Transparent_Rectangle_" class="st0" width="32" height="32" />
      <polygon points="21.4,23 16,17.6 10.6,23 9,21.4 14.4,16 9,10.6 10.6,9 16,14.4 21.4,9 23,10.6 17.6,16 23,21.4 " />
    </svg>

    <svg id="maximize" xmlns="http://www.w3.org/2000/svg" width="1em" height="1em" viewBox="0 0 32 32">
      <path fill="currentColor"
            d="M20 2v2h6.586L18 12.582L19.414 14L28 5.414V12h2V2zm-6 17.416L12.592 18L4 26.586V20H2v10h10v-2H5.414z" />
    </svg>

    <svg id="minimize" xmlns="http://www.w3.org/2000/svg" width="1em" height="1em" viewBox="0 0 32 32">
      <path fill="currentColor"
            d="M4 18v2h6.586L2 28.582L3.414 30L12 21.414V28h2V18zM30 3.416L28.592 2L20 10.586V4h-2v10h10v-2h-6.586z" />
    </svg>

    <svg id="launch" xmlns="http://www.w3.org/2000/svg" width="1em" height="1em" viewBox="0 0 32 32">
      <path fill="currentColor"
            d="M26 28H6a2.003 2.003 0 0 1-2-2V6a2.003 2.003 0 0 1 2-2h10v2H6v20h20V16h2v10a2.003 2.003 0 0 1-2 2" />
      <path fill="currentColor" d="M20 2v2h6.586L18 12.586L19.414 14L28 5.414V12h2V2z" />
    </svg>

    <svg id="pending" xmlns="http://www.w3.org/2000/svg" width="32" height="32" viewBox="0 0 32 32">
      <defs>
        <style>
            .cls-1 {
                fill: none;
            }
        </style>
      </defs>
      <circle cx="9" cy="16" r="2" />
      <circle cx="23" cy="16" r="2" />
      <circle cx="16" cy="16" r="2" />
      <path d="M16,30A14,14,0,1,1,30,16,14.0158,14.0158,0,0,1,16,30ZM16,4A12,12,0,1,0,28,16,12.0137,12.0137,0,0,0,16,4Z"
            transform="translate(0 0)" />
      <rect id="_Transparent_Rectangle_" data-name="&lt;Transparent Rectangle&gt;" class="cls-1" width="32"
            height="32" />
    </svg>

    <svg id="progress-bar-round" xmlns="http://www.w3.org/2000/svg" width="32" height="32" viewBox="0 0 32 32">
      <defs>
        <style>
            .cls-1 {
                fill: none;
            }
        </style>
      </defs>
      <path d="M16,22a6,6,0,1,1,6-6A6.0067,6.0067,0,0,1,16,22Zm0-10a4,4,0,1,0,4,4A4.0045,4.0045,0,0,0,16,12Z" />
      <path d="M16,26a10.0162,10.0162,0,0,1-7.4531-3.3325l1.49-1.334A8,8,0,1,0,16,8V6a10,10,0,0,1,0,20Z" />
      <path
        d="M16,30A14,14,0,1,1,30,16,14.0158,14.0158,0,0,1,16,30ZM16,4A12,12,0,1,0,28,16,12.0137,12.0137,0,0,0,16,4Z" />
      <rect id="_Transparent_Rectangle_" data-name="&lt;Transparent Rectangle&gt;" class="cls-1" width="32"
            height="32" />
    </svg>

    <svg id="arrow-right" xmlns="http://www.w3.org/2000/svg" width="32" height="32" viewBox="0 0 32 32">
      <defs>
        <style>
            .cls-1 {
                fill: none;
            }
        </style>
      </defs>
      <polygon points="18 6 16.57 7.393 24.15 15 4 15 4 17 24.15 17 16.57 24.573 18 26 28 16 18 6" />
      <rect id="_Transparent_Rectangle_" data-name="&lt;Transparent Rectangle&gt;" class="cls-1" width="32"
            height="32" />
    </svg>

    <svg id="chevron-sort-down" xmlns="http://www.w3.org/2000/svg" width="1em" height="1em" viewBox="0 0 32 32">
      <path fill="currentColor" d="m16 28l-7-7l1.4-1.4l5.6 5.6l5.6-5.6L23 21z" />
    </svg>

    <svg id="chevron-sort-up" xmlns="http://www.w3.org/2000/svg" width="1em" height="1em" viewBox="0 0 32 32">
      <path fill="currentColor" d="m16 4l7 7l-1.4 1.4L16 6.8l-5.6 5.6L9 11z" />
    </svg>

    <svg id="highlight_alt" xmlns="http://www.w3.org/2000/svg" width="1em" height="1em" viewBox="0 0 24 24">
      <path fill="currentColor"
            d="M17 5h-2V3h2zm-2 16h2v-2.59L19.59 21L21 19.59L18.41 17H21v-2h-6zm4-12h2V7h-2zm0 4h2v-2h-2zm-8 8h2v-2h-2zM7 5h2V3H7zM3 17h2v-2H3zm2 4v-2H3c0 1.1.9 2 2 2M19 3v2h2c0-1.1-.9-2-2-2m-8 2h2V3h-2zM3 9h2V7H3zm4 12h2v-2H7zm-4-8h2v-2H3zm0-8h2V3c-1.1 0-2 .9-2 2" />
    </svg>

    <svg id="zoom_in_map" xmlns="http://www.w3.org/2000/svg" width="1em" height="1em" viewBox="0 0 24 24">
      <path fill="currentColor"
            d="M9 9V3H7v2.59L3.91 2.5L2.5 3.91L5.59 7H3v2zm12 0V7h-2.59l3.09-3.09l-1.41-1.41L17 5.59V3h-2v6zM3 15v2h2.59L2.5 20.09l1.41 1.41L7 18.41V21h2v-6zm12 0v6h2v-2.59l3.09 3.09l1.41-1.41L18.41 17H21v-2z" />
    </svg>

    <svg id="check_box_outline_blank" xmlns="http://www.w3.org/2000/svg" width="1em" height="1em" viewBox="0 0 24 24">
      <path fill="currentColor"
            d="M19 3H5c-1.11 0-2 .89-2 2v14a2 2 0 0 0 2 2h14a2 2 0 0 0 2-2V5a2 2 0 0 0-2-2m0 2v14H5V5z" />
    </svg>

    <svg id="power" xmlns="http://www.w3.org/2000/svg" viewBox="0 0 32 32">
      <defs>
        <style>.cls-1 {
            fill: none;
        }</style>
      </defs>
      <path d="M22.5,5.74l-1,1.73a11,11,0,1,1-11,0l-1-1.73a13,13,0,1,0,13,0Z" transform="translate(0)" />
      <rect x="15" y="2" width="2" height="14" />
      <rect id="_Transparent_Rectangle_" data-name="&lt;Transparent Rectangle&gt;" class="cls-1" width="32"
            height="32" />
    </svg>

    <svg id="filter-remove" xmlns="http://www.w3.org/2000/svg" width="1em" height="1em" viewBox="0 0 24 24">
      <g fill="none" stroke="currentColor" stroke-linecap="round" stroke-linejoin="round" stroke-width="2">
        <path d="M3 4h14l-5 6.5v9.5l-4 -4v-5.5Z"></path>
        <path d="M16 15l6 6"></path>
        <path d="M16 21l6 -6"></path>
      </g>
    </svg>

    <svg id="filter-confirm" xmlns="http://www.w3.org/2000/svg" width="1em" height="1em" viewBox="0 0 24 24">
      <g fill="none" stroke="currentColor" stroke-linecap="round" stroke-linejoin="round" stroke-width="2">
        <path d="M3 4h14l-5 6.5v9.5l-4 -4v-5.5Z"></path>
        <path d="M16 18l2 2l3.5 -3.5"></path>
      </g>
    </svg>

    <svg id="bx-reset" xmlns="http://www.w3.org/2000/svg" width="1em" height="1em" viewBox="0 0 24 24">
      <path fill="currentColor" d="M12 16c1.671 0 3-1.331 3-3s-1.329-3-3-3s-3 1.331-3 3s1.329 3 3 3" />
      <path fill="currentColor"
            d="M20.817 11.186a8.9 8.9 0 0 0-1.355-3.219a9 9 0 0 0-2.43-2.43a9 9 0 0 0-3.219-1.355a9 9 0 0 0-1.838-.18V2L8 5l3.975 3V6.002c.484-.002.968.044 1.435.14a7 7 0 0 1 2.502 1.053a7 7 0 0 1 1.892 1.892A6.97 6.97 0 0 1 19 13a7 7 0 0 1-.55 2.725a7 7 0 0 1-.644 1.188a7 7 0 0 1-.858 1.039a7.03 7.03 0 0 1-3.536 1.907a7.1 7.1 0 0 1-2.822 0a7 7 0 0 1-2.503-1.054a7 7 0 0 1-1.89-1.89A7 7 0 0 1 5 13H3a9 9 0 0 0 1.539 5.034a9.1 9.1 0 0 0 2.428 2.428A8.95 8.95 0 0 0 12 22a9 9 0 0 0 1.814-.183a9 9 0 0 0 3.218-1.355a9 9 0 0 0 1.331-1.099a9 9 0 0 0 1.1-1.332A8.95 8.95 0 0 0 21 13a9 9 0 0 0-.183-1.814" />
    </svg>


    <svg id="copy" xmlns="http://www.w3.org/2000/svg" width="1em" height="1em" viewBox="0 0 32 32">
      <path
        fill="currentColor"
        d="M28 10v18H10V10zm0-2H10a2 2 0 0 0-2 2v18a2 2 0 0 0 2 2h18a2 2 0 0 0 2-2V10a2 2 0 0 0-2-2"
      />
      <path fill="currentColor" d="M4 18H2V4a2 2 0 0 1 2-2h14v2H4Z" />
    </svg>

    <svg id="document-multiple-02" xmlns="http://www.w3.org/2000/svg" width="1em" height="1em" viewBox="0 0 32 32">
      <path fill="currentColor" d="M18 31H6c-1.1 0-2-.9-2-2V12h2v17h12z" />
      <path fill="currentColor" d="M22 27H10c-1.1 0-2-.9-2-2V8h2v17h12z" />
      <path fill="currentColor" d="M16 16h8v2h-8z" />
      <path fill="currentColor"
            d="m27.7 9.3l-7-7c-.2-.2-.4-.3-.7-.3h-6c-1.1 0-2 .9-2 2v17c0 1.1.9 2 2 2h12c1.1 0 2-.9 2-2V10c0-.3-.1-.5-.3-.7M20 4.4l5.6 5.6H20zM26 21H14V4h4v6c0 1.1.9 2 2 2h6z" />
    </svg>

    <svg id="list-panel-full" xmlns="http://www.w3.org/2000/svg" width="20" height="20" viewBox="0 0 20 20">
      <path fill="currentColor" fill-rule="evenodd"
            d="M6.25,3.75 L17.5,3.75 L17.5,5 L6.25,5 Z M6.25,15 L17.5,15 L17.5,16.25 L6.25,16.25 Z M6.25,9.375 L17.5,9.375 L17.5,10.625 L6.25,10.625 Z M2.5,3.75 L3.75,3.75 L3.75,16.25 L2.5,16.25 Z" />
    </svg>

    <svg id="copy-additional" xmlns="http://www.w3.org/2000/svg" width="32" height="32" viewBox="0 0 32 32">
      <path fill="currentColor" d="M28 19H14.83l2.58-2.59L16 15l-5 5l5 5l1.41-1.41L14.83 21H28z" />
      <path
        fill="currentColor"
        d="M24 14v-4a1 1 0 0 0-.29-.71l-7-7A1 1 0 0 0 16 2H6a2 2 0 0 0-2 2v24a2 2 0 0 0 2 2h16a2 2 0 0 0 2-2v-2h-2v2H6V4h8v6a2 2 0 0 0 2 2h6v2Zm-8-4V4.41L21.59 10Z"
      />
    </svg>

    <svg id="star" xmlns="http://www.w3.org/2000/svg" width="32" height="32" viewBox="0 0 32 32">
      <path
        fill="currentColor"
        d="m16 6.52l2.76 5.58l.46 1l1 .15l6.16.89l-4.38 4.3l-.75.73l.18 1l1.05 6.13l-5.51-2.89L16 23l-.93.49l-5.51 2.85l1-6.13l.18-1l-.74-.77l-4.42-4.35l6.16-.89l1-.15l.46-1zM16 2l-4.55 9.22l-10.17 1.47l7.36 7.18L6.9 30l9.1-4.78L25.1 30l-1.74-10.13l7.36-7.17l-10.17-1.48Z"
      />
    </svg>

    <svg id="star-filled" xmlns="http://www.w3.org/2000/svg" viewBox="0 0 32 32">
      <defs>
        <style>
            .cls-1 {
                fill: none;
            }
        </style>
      </defs>
      <path d="M16,2l-4.55,9.22L1.28,12.69l7.36,7.18L6.9,30,16,25.22,25.1,30,23.36,19.87l7.36-7.17L20.55,11.22Z" />
      <rect id="_Transparent_Rectangle_" data-name="&lt;Transparent Rectangle&gt;" class="cls-1" width="32"
            height="32" />
    </svg>

    <svg id="recently-viewed" xmlns="http://www.w3.org/2000/svg" width="32" height="32" viewBox="0 0 32 32">
      <path fill="currentColor" d="M20.59 22L15 16.41V7h2v8.58l5 5.01z" />
      <path fill="currentColor" d="M16 2A13.94 13.94 0 0 0 6 6.23V2H4v8h8V8H7.08A12 12 0 1 1 4 16H2A14 14 0 1 0 16 2" />
    </svg>

    <svg id="caret-right" version="1.1" xmlns="http://www.w3.org/2000/svg"
         x="0px" y="0px"
         width="32px" height="32px" viewBox="0 0 32 32" style="enable-background:new 0 0 32 32;" xml:space="preserve">
      <style type="text/css">
        .st0 {
            fill: none;
        }
      </style>
      <polygon points="12,8 22,16 12,24 " />
      <rect class="st0" width="32" height="32" />
    </svg>

    <svg id="plus" xmlns="http://www.w3.org/2000/svg" fill="none" viewBox="0 0 24 24" stroke-width="1.5"
         stroke="currentColor" aria-hidden="true">
      <path stroke-linecap="round" stroke-linejoin="round" d="M12 4.5v15m7.5-7.5h-15" />
    </svg>

    <svg id="route" xmlns="http://www.w3.org/2000/svg" viewBox="0 0 512 512">
      <path
        d="M512 96c0 50.2-59.1 125.1-84.6 155c-3.8 4.4-9.4 6.1-14.5 5L320 256c-17.7 0-32 14.3-32 32s14.3 32 32 32l96 0c53 0 96 43 96 96s-43 96-96 96l-276.4 0c8.7-9.9 19.3-22.6 30-36.8c6.3-8.4 12.8-17.6 19-27.2L416 448c17.7 0 32-14.3 32-32s-14.3-32-32-32l-96 0c-53 0-96-43-96-96s43-96 96-96l39.8 0c-21-31.5-39.8-67.7-39.8-96c0-53 43-96 96-96s96 43 96 96zM117.1 489.1c-3.8 4.3-7.2 8.1-10.1 11.3l-1.8 2-.2-.2c-6 4.6-14.6 4-20-1.8C59.8 473 0 402.5 0 352c0-53 43-96 96-96s96 43 96 96c0 30-21.1 67-43.5 97.9c-10.7 14.7-21.7 28-30.8 38.5l-.6 .7zM128 352a32 32 0 1 0 -64 0 32 32 0 1 0 64 0zM416 128a32 32 0 1 0 0-64 32 32 0 1 0 0 64z" />
    </svg>

    <svg id="ruler" xmlns="http://www.w3.org/2000/svg" viewBox="0 0 512 512">
      <path
        d="M177.9 494.1c-18.7 18.7-49.1 18.7-67.9 0L17.9 401.9c-18.7-18.7-18.7-49.1 0-67.9l50.7-50.7 48 48c6.2 6.2 16.4 6.2 22.6 0s6.2-16.4 0-22.6l-48-48 41.4-41.4 48 48c6.2 6.2 16.4 6.2 22.6 0s6.2-16.4 0-22.6l-48-48 41.4-41.4 48 48c6.2 6.2 16.4 6.2 22.6 0s6.2-16.4 0-22.6l-48-48 41.4-41.4 48 48c6.2 6.2 16.4 6.2 22.6 0s6.2-16.4 0-22.6l-48-48 50.7-50.7c18.7-18.7 49.1-18.7 67.9 0l92.1 92.1c18.7 18.7 18.7 49.1 0 67.9L177.9 494.1z" />
    </svg>

    <svg id="draw-polygon" xmlns="http://www.w3.org/2000/svg" viewBox="0 0 448 512">
      <path
        d="M96 151.4l0 209.1c9.7 5.6 17.8 13.7 23.4 23.4l209.1 0c0-.1 .1-.2 .1-.3l-4.5-7.9-32-56s0 0 0 0c-1.4 .1-2.8 .1-4.2 .1c-35.3 0-64-28.7-64-64s28.7-64 64-64c1.4 0 2.8 0 4.2 .1c0 0 0 0 0 0l32-56 4.5-7.9-.1-.3-209.1 0c-5.6 9.7-13.7 17.8-23.4 23.4zM384.3 352c35.2 .2 63.7 28.7 63.7 64c0 35.3-28.7 64-64 64c-23.7 0-44.4-12.9-55.4-32l-209.1 0c-11.1 19.1-31.7 32-55.4 32c-35.3 0-64-28.7-64-64c0-23.7 12.9-44.4 32-55.4l0-209.1C12.9 140.4 0 119.7 0 96C0 60.7 28.7 32 64 32c23.7 0 44.4 12.9 55.4 32l209.1 0c11.1-19.1 31.7-32 55.4-32c35.3 0 64 28.7 64 64c0 35.3-28.5 63.8-63.7 64l-4.5 7.9-32 56-2.3 4c4.2 8.5 6.5 18 6.5 28.1s-2.3 19.6-6.5 28.1l2.3 4 32 56 4.5 7.9z" />
    </svg>

    <svg id="ban" xmlns="http://www.w3.org/2000/svg" viewBox="0 0 512 512">
      <path
        d="M367.2 412.5L99.5 144.8C77.1 176.1 64 214.5 64 256c0 106 86 192 192 192c41.5 0 79.9-13.1 111.2-35.5zm45.3-45.3C434.9 335.9 448 297.5 448 256c0-106-86-192-192-192c-41.5 0-79.9 13.1-111.2 35.5L412.5 367.2zM0 256a256 256 0 1 1 512 0A256 256 0 1 1 0 256z" />
    </svg>

    <svg id="flag" xmlns="http://www.w3.org/2000/svg" viewBox="0 0 448 512">
      <path
        d="M64 32C64 14.3 49.7 0 32 0S0 14.3 0 32L0 64 0 368 0 480c0 17.7 14.3 32 32 32s32-14.3 32-32l0-128 64.3-16.1c41.1-10.3 84.6-5.5 122.5 13.4c44.2 22.1 95.5 24.8 141.7 7.4l34.7-13c12.5-4.7 20.8-16.6 20.8-30l0-247.7c0-23-24.2-38-44.8-27.7l-9.6 4.8c-46.3 23.2-100.8 23.2-147.1 0c-35.1-17.6-75.4-22-113.5-12.5L64 48l0-16z" />
    </svg>

    <svg id="panorama" xmlns="http://www.w3.org/2000/svg" viewBox="0 0 32 32">
      <defs>
        <style>
            .cls-1{fill:none;}
        </style>
      </defs>
      <path d="M21.87,7.84l-1.74-1L16,14h0a2,2,0,1,0,2,2,2,2,0,0,0-.27-1Z"/><path d="M16,2A14,14,0,1,0,30,16,14,14,0,0,0,16,2Zm0,2a12,12,0,0,1,11.17,7.65,25.69,25.69,0,0,0-3.69-1.5l-1,1.77a22.7,22.7,0,0,1,5.41,2.39,11.05,11.05,0,0,1,0,3.38A22.92,22.92,0,0,1,16,21,22.92,22.92,0,0,1,4.13,17.69a11.05,11.05,0,0,1,0-3.38A22.8,22.8,0,0,1,15,11V9a25,25,0,0,0-10.17,2.6A12,12,0,0,1,16,4Zm0,24A12,12,0,0,1,4.83,20.35,24.88,24.88,0,0,0,16,23a24.88,24.88,0,0,0,11.17-2.65A12,12,0,0,1,16,28Z"/>
      <rect id="_Transparent_Rectangle_" data-name="&lt;Transparent Rectangle&gt;" class="cls-1" width="32" height="32"/>
    </svg>

    <svg id="chart-network" xmlns="http://www.w3.org/2000/svg" width="32" height="32" viewBox="0 0 32 32">
      <path fill="currentColor" d="M26 14a2 2 0 0 0 2-2V6a2 2 0 0 0-2-2h-6a2 2 0 0 0-2 2v6a2 2 0 0 0 2 2h2v4.1a5 5 0 0 0-3.9 3.9H14v-2a2 2 0 0 0-2-2h-2v-4.1a5 5 0 1 0-2 0V18H6a2 2 0 0 0-2 2v6a2 2 0 0 0 2 2h6a2 2 0 0 0 2-2v-2h4.1a5 5 0 1 0 5.9-5.9V14ZM6 9a3 3 0 1 1 3 3a3 3 0 0 1-3-3m6 17H6v-6h6Zm14-3a3 3 0 1 1-3-3a3 3 0 0 1 3 3M20 6h6v6h-6Z"/>
    </svg>

    <svg id="location-person" xmlns="http://www.w3.org/2000/svg" width="32" height="32" viewBox="0 0 32 32">
      <path fill="currentColor" d="M20,19H18V17H14v2H12V17a2.0021,2.0021,0,0,1,2-2h4a2.0021,2.0021,0,0,1,2,2Z"/>
      <path fill="currentColor" d="M16,14a3,3,0,1,1,3-3A3.0033,3.0033,0,0,1,16,14Zm0-4a1,1,0,1,0,1,1A1.0011,1.0011,0,0,0,16,10Z"/>
      <path fill="currentColor" d="M16,30,7.5645,20.0513c-.0479-.0571-.3482-.4515-.3482-.4515A10.8888,10.8888,0,0,1,5,13a11,11,0,0,1,22,0,10.8844,10.8844,0,0,1-2.2148,6.5973l-.0015.0025s-.3.3944-.3447.4474ZM8.8125,18.395c.001.0007.2334.3082.2866.3744L16,26.9079l6.91-8.15c.0439-.0552.2783-.3649.2788-.3657A8.901,8.901,0,0,0,25,13,9,9,0,0,0,7,13a8.9054,8.9054,0,0,0,1.8125,5.395Z"/>
    </svg>

    <svg id="video" xmlns="http://www.w3.org/2000/svg" width="32" height="32" viewBox="0 0 32 32">
      <path d="M21,26H4a2,2,0,0,1-2-2V8A2,2,0,0,1,4,6H21a2,2,0,0,1,2,2v4.06l5.42-3.87A1,1,0,0,1,30,9V23a1,1,0,0,1-1.58.81L23,19.94V24A2,2,0,0,1,21,26ZM4,8V24H21V18a1,1,0,0,1,1.58-.81L28,21.06V10.94l-5.42,3.87A1,1,0,0,1,21,14V8Z"/>
    </svg>

    <svg id="plan" version="1.1" xmlns="http://www.w3.org/2000/svg" xmlns:xlink="http://www.w3.org/1999/xlink" x="0px" y="0px" width="32px" height="32px" viewBox="0 0 32 32" style="enable-background:new 0 0 32 32;" xml:space="preserve">
      <style type="text/css">
        .st0{fill:none;}
      </style>
      <path d="M31,8c0-0.4-0.2-0.7-0.5-0.9l-7-4C23.3,3,23.2,3,23,3s-0.3,0-0.5,0.1L16,6.8L9.5,3.1C9.3,3,9.2,3,9,3S8.7,3,8.5,3.1l-7,4
        C1.2,7.3,1,7.6,1,8v20c0,0.6,0.4,1,1,1c0.2,0,0.3-0.1,0.5-0.1l0,0L9,25.2l6.5,3.7C15.7,29,15.8,29,16,29s0.3,0,0.5-0.1l6.5-3.7
        l6.5,3.7l0,0c0.1,0.1,0.3,0.1,0.5,0.1c0.6,0,1-0.4,1-1V8z M3,8.6l5-2.9v17.7l-5,2.9V8.6z M15,26.3l-5-2.9V5.7l5,2.9V26.3z M22,23.4
        l-5,2.9V8.6l5-2.9V23.4z M24,23.4V5.7l5,2.9l0,17.7L24,23.4z"/>
      <rect id="_x3C_Transparent_Rectangle_x3E__363_" class="st0" width="32" height="32"/>
    </svg>

    <svg id="cube-view" xmlns="http://www.w3.org/2000/svg" width="32" height="32" viewBox="0 0 32 32">
      <defs>
        <style>
          .cls-1 {
            fill: none;
          }
        </style>
      </defs>
      <circle cx="16" cy="16" r="2"/>
      <path d="M23.7769,15.4785A8.64,8.64,0,0,0,16,10a8.64,8.64,0,0,0-7.7769,5.4785L8,16l.2231.5215A8.64,8.64,0,0,0,16,22a8.64,8.64,0,0,0,7.7769-5.4785L24,16ZM16,20a4,4,0,1,1,4-4A4.0045,4.0045,0,0,1,16,20Z"/>
      <path d="M28.5039,8.1362l-12-7a1,1,0,0,0-1.0078,0l-12,7A1,1,0,0,0,3,9V23a1,1,0,0,0,.4961.8638l12,7a1,1,0,0,0,1.0078,0l12-7A1,1,0,0,0,29,23V9A1,1,0,0,0,28.5039,8.1362ZM27,22.4258,16,28.8423,5,22.4258V9.5742L16,3.1577,27,9.5742Z"/>
      <rect id="_Transparent_Rectangle_" data-name="&lt;Transparent Rectangle&gt;" class="cls-1" width="32" height="32"/>
    </svg>
    <svg id="orbit" xmlns="http://www.w3.org/2000/svg" width="32" height="32" viewBox="0 0 32 32">
      <path fill="currentColor" d="M19 21h-6c-1.103 0-2-.897-2-2v-6c0-1.103.897-2 2-2h6c1.103 0 2 .897 2 2v6c0 1.103-.897 2-2 2m-6-8v6h6v-6z"/><path fill="currentColor" d="M30 16c0-7.72-6.28-14-14-14S2 8.28 2 16s6.28 14 14 14c2.777 0 5.417-.796 7.701-2.308c.395.191.832.308 1.299.308c1.654 0 3-1.346 3-3c0-.467-.117-.904-.308-1.299A13.85 13.85 0 0 0 30 16M4 16C4 9.383 9.383 4 16 4s12 5.383 12 12c0 2.248-.615 4.388-1.774 6.268A3 3 0 0 0 25 22c-1.654 0-3 1.346-3 3c0 .438.1.85.268 1.226A11.86 11.86 0 0 1 16 28C9.383 28 4 22.617 4 16m21 10a1.001 1.001 0 0 1 0-2a1.001 1.001 0 0 1 0 2"/>
    </svg>
    <svg id="export" xmlns="http://www.w3.org/2000/svg" width="32" height="32" viewBox="0 0 32 32">
      <path fill="currentColor" d="M26 24v4H6v-4H4v4l.008-.005A2 2 0 0 0 6 30h20a2 2 0 0 0 2-2v-4zM6 12l1.411 1.405L15 5.825V24h2V5.825l7.591 7.58L26 12L16 2z"/>
    </svg>
    <svg id="observer" xmlns="http://www.w3.org/2000/svg" width="32" height="32" viewBox="0 0 32 32">
      <path fill="currentColor" d="M20,19H18V17H14v2H12V17a2.0021,2.0021,0,0,1,2-2h4a2.0021,2.0021,0,0,1,2,2Z"/>
      <path fill="currentColor" d="M16,14a3,3,0,1,1,3-3A3.0033,3.0033,0,0,1,16,14Zm0-4a1,1,0,1,0,1,1A1.0011,1.0011,0,0,0,16,10Z"/>
      <path fill="currentColor" d="M16,30,7.5645,20.0513c-.0479-.0571-.3482-.4515-.3482-.4515A10.8888,10.8888,0,0,1,5,13a11,11,0,0,1,22,0,10.8844,10.8844,0,0,1-2.2148,6.5973l-.0015.0025s-.3.3944-.3447.4474ZM8.8125,18.395c.001.0007.2334.3082.2866.3744L16,26.9079l6.91-8.15c.0439-.0552.2783-.3649.2788-.3657A8.901,8.901,0,0,0,25,13,9,9,0,0,0,7,13a8.9054,8.9054,0,0,0,1.8125,5.395Z"/>
      <rect fill="none" width="32" height="32"/>
    </svg>

    <svg id="network-2" xmlns="http://www.w3.org/2000/svg" width="32" height="32" viewBox="0 0 32 32">
      <defs>
        <style>.cls-1 { fill: none; }</style>
      </defs>
      <g transform="rotate(90 16 16)">
        <path
          d="M17,17h5.1421a4,4,0,1,0,0-2H17V7h5.1421a4,4,0,1,0,0-2H17a2.0023,2.0023,0,0,0-2,2v8H9.8579a4,4,0,1,0,0,2H15v8a2.0023,2.0023,0,0,0,2,2h5.1421a4,4,0,1,0,0-2H17Zm9-3a2,2,0,1,1-2,2A2.0023,2.0023,0,0,1,26,14ZM26,4a2,2,0,1,1-2,2A2.0023,2.0023,0,0,1,26,4ZM6,18a2,2,0,1,1,2-2A2.0023,2.0023,0,0,1,6,18Zm20,6a2,2,0,1,1-2,2A2.0023,2.0023,0,0,1,26,24Z" />
      </g>
      <rect id="_Transparent_Rectangle_" data-name="&lt;Transparent Rectangle&gt;" class="cls-1" width="32" height="32"
            transform="translate(32 32) rotate(180)" />
    </svg>

    <svg id="link" xmlns="http://www.w3.org/2000/svg" viewBox="0 0 32 32">
      <defs>
        <style>.cls-1 {
            fill: none;
        }</style>
      </defs>
      <path
        d="M29.25,6.76a6,6,0,0,0-8.5,0l1.42,1.42a4,4,0,1,1,5.67,5.67l-8,8a4,4,0,1,1-5.67-5.66l1.41-1.42-1.41-1.42-1.42,1.42a6,6,0,0,0,0,8.5A6,6,0,0,0,17,25a6,6,0,0,0,4.27-1.76l8-8A6,6,0,0,0,29.25,6.76Z" />
      <path
        d="M4.19,24.82a4,4,0,0,1,0-5.67l8-8a4,4,0,0,1,5.67,0A3.94,3.94,0,0,1,19,14a4,4,0,0,1-1.17,2.85L15.71,19l1.42,1.42,2.12-2.12a6,6,0,0,0-8.51-8.51l-8,8a6,6,0,0,0,0,8.51A6,6,0,0,0,7,28a6.07,6.07,0,0,0,4.28-1.76L9.86,24.82A4,4,0,0,1,4.19,24.82Z" />
      <rect id="_Transparent_Rectangle_" data-name="&lt;Transparent Rectangle&gt;" class="cls-1" width="32" height="32" />
    </svg>

    <?xml version="1.0" encoding="UTF-8"?>
    <svg id="circle" xmlns="http://www.w3.org/2000/svg" width="32" height="32" viewBox="0 0 32 32">
      <defs>
        <style>
            .cls-1 {
                fill: none;
            }

            .cls-1, .cls-2 {
                stroke-width: 0px;
            }
        </style>
      </defs>
      <path class="cls-2" d="m16,2c-7.732,0-14,6.268-14,14s6.268,14,14,14,14-6.268,14-14S23.732,2,16,2Zm0,26c-6.6274,0-12-5.3726-12-12s5.3726-12,12-12,12,5.3726,12,12-5.3726,12-12,12Z"/>
      <rect id="_Transparent_Rectangle_" data-name="&amp;lt;Transparent Rectangle&amp;gt;" class="cls-1" width="32" height="32" transform="translate(32 32) rotate(180)"/>
    </svg>


    <svg id="grid" xmlns="http://www.w3.org/2000/svg" viewBox="0 0 32 32">
      <defs>
        <style>.cls-1 {
            fill: none;
        }</style>
      </defs>
      <title>grid</title>
      <path d="M12,4H6A2,2,0,0,0,4,6v6a2,2,0,0,0,2,2h6a2,2,0,0,0,2-2V6A2,2,0,0,0,12,4Zm0,8H6V6h6Z" />
      <path d="M26,4H20a2,2,0,0,0-2,2v6a2,2,0,0,0,2,2h6a2,2,0,0,0,2-2V6A2,2,0,0,0,26,4Zm0,8H20V6h6Z" />
      <path d="M12,18H6a2,2,0,0,0-2,2v6a2,2,0,0,0,2,2h6a2,2,0,0,0,2-2V20A2,2,0,0,0,12,18Zm0,8H6V20h6Z" />
      <path d="M26,18H20a2,2,0,0,0-2,2v6a2,2,0,0,0,2,2h6a2,2,0,0,0,2-2V20A2,2,0,0,0,26,18Zm0,8H20V20h6Z" />
      <rect id="_Transparent_Rectangle_" data-name="&lt;Transparent Rectangle&gt;" class="cls-1" width="32" height="32" />
    </svg>
  </defs>
</svg>
