<svg xmlns="http://www.w3.org/2000/svg" width="20" height="20" viewBox="0 0 20 20"><g fill="none" fill-rule="evenodd"><path fill="#FF3E00" d="M10.5777541,0.42091361 L18.1484544,4.71022179 C18.4643536,4.88919981 18.6584246,5.22534067 18.6554745,5.5884064 L18.5847742,14.2894793 C18.5818949,14.6438319 18.3916957,14.9701973 18.0848072,15.1473795 L10.4151928,19.5754334 C10.1083043,19.7526156 9.73056391,19.7541502 9.42224593,19.5794674 L1.85154562,15.2901593 C1.53564643,15.1111812 1.34157541,14.7750404 1.34452549,14.4119747 L1.4152258,5.71090177 C1.41810509,5.35654919 1.60830433,5.03018371 1.91519279,4.85300157 L9.58480721,0.424947623 C9.89169567,0.247765484 10.2694361,0.24623085 10.5777541,0.42091361 Z" transform="rotate(30 10 10)"/><path fill="#000" d="M5.5,3.9 L6.5,3.9 L6.5,12.9 L5.5,12.9 Z M3.665,7.01 C2.92180323,6.34598343 2.49693053,5.39662403 2.49693053,4.4 C2.49693053,3.40337597 2.92180323,2.45401657 3.665,1.79 L4.335,2.535 C3.80366295,3.00931871 3.49986486,3.68775194 3.49986486,4.4 C3.49986486,5.11224806 3.80366295,5.79068129 4.335,6.265 L3.665,7.01 Z M8.335,7.01 L7.665,6.265 C8.19633705,5.79068129 8.50013514,5.11224806 8.50013514,4.4 C8.50013514,3.68775194 8.19633705,3.00931871 7.665,2.535 L8.335,1.79 C9.07819677,2.45401657 9.50306947,3.40337597 9.50306947,4.4 C9.50306947,5.39662403 9.07819677,6.34598343 8.335,7.01 Z M2.2,8.8 C0.815067865,7.7613009 0,6.13116517 0,4.4 C0,2.66883483 0.815067865,1.0386991 2.2,-8.8817842e-16 L2.8,0.8 C1.66687371,1.64984472 1,2.98359214 1,4.4 C1,5.81640786 1.66687371,7.15015528 2.8,8 L2.2,8.8 Z M9.8,8.8 L9.2,8 C10.3331263,7.15015528 11,5.81640786 11,4.4 C11,2.98359214 10.3331263,1.64984472 9.2,0.8 L9.8,-8.8817842e-16 C11.1849321,1.0386991 12,2.66883483 12,4.4 C12,6.13116517 11.1849321,7.7613009 9.8,8.8 Z" transform="translate(4 4.1)"/></g></svg>