<?xml version="1.0" standalone="no"?>
<!DOCTYPE svg PUBLIC "-//W3C//DTD SVG 20010904//EN"
  "http://www.w3.org/TR/2001/REC-SVG-20010904/DTD/svg10.dtd">
<svg width="24" height="24">
<g style="fill:black;fill-opacity:1;stroke:none;stroke-width:1;stroke-opacity:0;fill-rule:nonzero;">
<g style="fill:none;fill-rule:evenodd;" transform="translate(-1,-1)">
<g style="" transform="matrix(0.866025 0.5 -0.5 0.866025 8.24167 -4.75833)">
<g style="fill:#FFF;stroke:gray;stroke-width:2;" transform="matrix(0.866025 0.5 -0.5 0.866025 8.24167 -4.75833)">
  <path d="M12.9659802,4.0940138 C13.3127167,4.09478575 13.6592527,4.18561742 13.9692299,4.36642785 L19.9384598,7.84829456 C20.5501719,8.20510775 20.9275844,8.85880545 20.9307377,9.56697026 L20.9615077,16.4774084 C20.9631056,16.8362617 20.8685001,17.1817865 20.6958004,17.4824551 C20.5231007,17.7831237 20.2723067,18.0389361 19.9615276,18.2183645 L14.0384724,21.638042 C13.7276933,21.8174704 13.3807563,21.9067581 13.0340198,21.9059862 C12.6872833,21.9052142 12.3407473,21.8143826 12.0307701,21.6335721 L6.06154019,18.1517054 C5.44982809,17.7948922 5.07241555,17.1411946 5.06926231,16.4330297 L5.03849227,9.5225916 C5.03689441,9.16373831 5.13149988,8.8182135 5.3041996,8.5175449 C5.47689932,8.21687631 5.7276933,7.96106393 6.03847244,7.7816355 L11.9615276,4.36195804 C12.2723067,4.18252961 12.6192437,4.09324185 12.9659802,4.0940138 Z"/>
</g>
<g style="stroke:#FFF;" transform="matrix(0.866025 0.5 -0.5 0.866025 8.24167 -4.75833)">
  <path d="M12.9648671,4.59401256 C13.2249194,4.59459153 13.4848214,4.66271528 13.7173043,4.7983231 L19.6865342,8.28018981 C20.1453183,8.5477997 20.4283777,9.03807297 20.4307426,9.56919658 L20.4615127,16.4796347 C20.4627111,16.7487747 20.391757,17.0079183 20.2622322,17.2334197 C20.1327074,17.4589212 19.9446119,17.6507805 19.7115276,17.7853518 L13.7884724,21.2050293 C13.5553881,21.3396006 13.2951853,21.4065664 13.0351329,21.4059874 C12.7750806,21.4054085 12.5151786,21.3372847 12.2826957,21.2016769 L6.31346576,17.7198102 C5.85468169,17.4522003 5.57162229,16.961927 5.56925736,16.4308034 L5.53848731,9.52036528 C5.53728892,9.25122531 5.60824302,8.9920817 5.73776781,8.76658025 C5.8672926,8.54107881 6.05538808,8.34921952 6.28847244,8.2146482 L12.2115276,4.79497074 C12.4446119,4.66039942 12.7048147,4.5934336 12.9648671,4.59401256 Z"/>
</g>
</g>
<g style="fill:#924EFF;stroke:#000;stroke-opacity:.8;" transform="matrix(0.866025 0.5 -0.5 0.866025 8.24167 -4.75833)">
  <path d="M13,7.65470054 L17.4461524,10.1443376 C17.5235027,10.1889958 17.5860027,10.2525907 17.6291651,10.3273503 C17.6723276,10.4021098 17.6961524,10.4880339 17.6961524,10.5773503 L17.6961524,15.4226497 C17.6961524,15.5119661 17.6723276,15.5978902 17.6291651,15.6726497 C17.5860027,15.7474093 17.5235027,15.8110042 17.4461524,15.8556624 L13.25,18.2783122 C13.1726497,18.3229704 13.0863249,18.3452995 13,18.3452995 C12.9136751,18.3452995 12.8273503,18.3229704 12.75,18.2783122 L8.55384758,15.8556624 C8.47649731,15.8110042 8.41399731,15.7474093 8.37083488,15.6726497 C8.32767244,15.5978902 8.30384758,15.5119661 8.30384758,15.4226497 L8.30384758,10.5773503 C8.30384758,10.4880339 8.32767244,10.4021098 8.37083488,10.3273503 C8.41399731,10.2525907 8.47649731,10.1889958 8.55384758,10.1443376 L12.75,7.72168784 C12.8273503,7.67702964 12.9136751,7.65470054 13,7.65470054 Z"/>
</g>
</g>
</g>
</svg>
